<svg xmlns="http://www.w3.org/2000/svg" width="72" height="72" viewBox="0 0 72 72" fill="none"><g clip-path="url(#clip0_157637_22256)"><path d="M19.5488 58C19.1221 58 18.7381 57.8507 18.3968 57.552C18.0981 57.2107 17.9488 56.8267 17.9488 56.4V14.8C17.9488 14.3307 18.0981 13.9467 18.3968 13.648C18.7381 13.3493 19.1221 13.2 19.5488 13.2H39.0688C44.4448 13.2 48.4341 14.3093 51.0368 16.528C53.6821 18.704 55.0048 21.8187 55.0048 25.872C55.0048 28.0053 54.4501 29.8187 53.3408 31.312C52.2741 32.7627 51.0581 33.8293 49.6928 34.512C51.4421 35.3227 52.9141 36.624 54.1088 38.416C55.3034 40.208 55.9008 42.2133 55.9008 44.432C55.9008 48.6987 54.4928 52.0267 51.6768 54.416C48.8608 56.8053 44.8501 58 39.6448 58H19.5488ZM37.7888 30.992C39.4954 30.992 40.7968 30.5653 41.6928 29.712C42.5888 28.816 43.0368 27.6427 43.0368 26.192C43.0368 24.784 42.5888 23.6533 41.6928 22.8C40.7968 21.9467 39.4954 21.52 37.7888 21.52H29.4688V30.992H37.7888ZM38.3648 49.68C40.1141 49.68 41.4794 49.168 42.4608 48.144C43.4421 47.12 43.9328 45.8827 43.9328 44.432C43.9328 42.896 43.4421 41.6373 42.4608 40.656C41.4794 39.632 40.1141 39.12 38.3648 39.12H29.4688V49.68H38.3648Z" fill="#FDF8ED"></path><path d="M18.3968 57.552L17.7887 58.0841L17.8241 58.1246L17.8647 58.1601L18.3968 57.552ZM18.3968 13.648L17.8647 13.0399L17.8444 13.0576L17.8254 13.0767L18.3968 13.648ZM51.0368 16.528L50.5126 17.1429L50.518 17.1475L50.5235 17.152L51.0368 16.528ZM53.3408 31.312L52.6921 30.8302L52.6898 30.8333L53.3408 31.312ZM49.6928 34.512L49.3314 33.7893L47.8307 34.5396L49.353 35.2451L49.6928 34.512ZM54.1088 38.416L54.781 37.9678L54.781 37.9678L54.1088 38.416ZM51.6768 54.416L51.154 53.7999L51.154 53.7999L51.6768 54.416ZM41.6928 29.712L42.25 30.2971L42.2571 30.2903L42.2641 30.2833L41.6928 29.712ZM41.6928 22.8L41.1355 23.3851L41.1355 23.3851L41.6928 22.8ZM29.4688 21.52V20.712H28.6608V21.52H29.4688ZM29.4688 30.992H28.6608V31.8H29.4688V30.992ZM42.4608 48.144L41.8774 47.5849L41.8774 47.5849L42.4608 48.144ZM42.4608 40.656L41.8774 41.2151L41.8833 41.2213L41.8894 41.2273L42.4608 40.656ZM29.4688 39.12V38.312H28.6608V39.12H29.4688ZM29.4688 49.68H28.6608V50.488H29.4688V49.68ZM19.5488 57.192C19.3308 57.192 19.133 57.1225 18.9288 56.9439L17.8647 58.1601C18.3432 58.5788 18.9134 58.808 19.5488 58.808V57.192ZM19.0048 57.0199C18.8262 56.8158 18.7567 56.6179 18.7567 56.4H17.1408C17.1408 57.0354 17.37 57.6055 17.7887 58.0841L19.0048 57.0199ZM18.7567 56.4V14.8H17.1408V56.4H18.7567ZM18.7567 14.8C18.7567 14.5189 18.8385 14.349 18.9681 14.2193L17.8254 13.0767C17.3577 13.5444 17.1408 14.1425 17.1408 14.8H18.7567ZM18.9288 14.2561C19.133 14.0775 19.3308 14.008 19.5488 14.008V12.392C18.9134 12.392 18.3432 12.6212 17.8647 13.0399L18.9288 14.2561ZM19.5488 14.008H39.0688V12.392H19.5488V14.008ZM39.0688 14.008C44.3568 14.008 48.1195 15.1029 50.5126 17.1429L51.5609 15.9131C48.7486 13.5157 44.5327 12.392 39.0688 12.392V14.008ZM50.5235 17.152C52.9473 19.1458 54.1968 22.0111 54.1968 25.872H55.8128C55.8128 21.6263 54.4169 18.2622 51.55 15.904L50.5235 17.152ZM54.1968 25.872C54.1968 27.8583 53.6832 29.4961 52.6921 30.8302L53.9894 31.7938C55.217 30.1413 55.8128 28.1524 55.8128 25.872H54.1968ZM52.6898 30.8333C51.6854 32.1993 50.5634 33.1733 49.3314 33.7893L50.0541 35.2347C51.5528 34.4853 52.8628 33.326 53.9917 31.7906L52.6898 30.8333ZM49.353 35.2451C50.952 35.9861 52.3144 37.1811 53.4365 38.8642L54.781 37.9678C53.5138 36.0669 51.9322 34.6592 50.0325 33.7789L49.353 35.2451ZM53.4365 38.8642C54.5399 40.5193 55.0928 42.3678 55.0928 44.432H56.7088C56.7088 42.0589 56.067 39.8967 54.781 37.9678L53.4365 38.8642ZM55.0928 44.432C55.0928 48.5024 53.76 51.5888 51.154 53.7999L52.1995 55.0321C55.2255 52.4646 56.7088 48.8949 56.7088 44.432H55.0928ZM51.154 53.7999C48.5339 56.023 44.7361 57.192 39.6448 57.192V58.808C44.964 58.808 49.1876 57.5876 52.1995 55.0321L51.154 53.7999ZM39.6448 57.192H19.5488V58.808H39.6448V57.192ZM37.7888 31.8C39.6232 31.8 41.1545 31.3404 42.25 30.2971L41.1355 29.1269C40.439 29.7903 39.3677 30.184 37.7888 30.184V31.8ZM42.2641 30.2833C43.3339 29.2135 43.8448 27.8233 43.8448 26.192H42.2288C42.2288 27.4621 41.8436 28.4185 41.1214 29.1407L42.2641 30.2833ZM43.8448 26.192C43.8448 24.5963 43.3288 23.2424 42.25 22.2149L41.1355 23.3851C41.8487 24.0643 42.2288 24.9717 42.2288 26.192H43.8448ZM42.25 22.2149C41.1545 21.1716 39.6232 20.712 37.7888 20.712V22.328C39.3677 22.328 40.439 22.7217 41.1355 23.3851L42.25 22.2149ZM37.7888 20.712H29.4688V22.328H37.7888V20.712ZM28.6608 21.52V30.992H30.2767V21.52H28.6608ZM29.4688 31.8H37.7888V30.184H29.4688V31.8ZM38.3648 50.488C40.2794 50.488 41.8762 49.9218 43.0441 48.7031L41.8774 47.5849C41.0827 48.4142 39.9487 48.872 38.3648 48.872V50.488ZM43.0441 48.7031C44.1732 47.5249 44.7408 46.0857 44.7408 44.432H43.1248C43.1248 45.6796 42.7109 46.7151 41.8774 47.5849L43.0441 48.7031ZM44.7408 44.432C44.7408 42.7068 44.1818 41.2344 43.0321 40.0847L41.8894 41.2273C42.7023 42.0403 43.1248 43.0852 43.1248 44.432H44.7408ZM43.0441 40.0969C41.8762 38.8782 40.2794 38.312 38.3648 38.312V39.928C39.9487 39.928 41.0827 40.3858 41.8774 41.2151L43.0441 40.0969ZM38.3648 38.312H29.4688V39.928H38.3648V38.312ZM28.6608 39.12V49.68H30.2767V39.12H28.6608ZM29.4688 50.488H38.3648V48.872H29.4688V50.488Z" fill="#FBDEB2"></path><mask id="mask0_157637_22256" style="mask-type:alpha" maskUnits="userSpaceOnUse" x="17" y="13" width="39" height="45"><path d="M19.5488 58C19.1221 58 18.7381 57.8507 18.3968 57.552C18.0981 57.2107 17.9488 56.8267 17.9488 56.4V14.8C17.9488 14.3307 18.0981 13.9467 18.3968 13.648C18.7381 13.3493 19.1221 13.2 19.5488 13.2H39.0688C44.4448 13.2 48.4341 14.3093 51.0368 16.528C53.6821 18.704 55.0048 21.8187 55.0048 25.872C55.0048 28.0053 54.4501 29.8187 53.3408 31.312C52.2741 32.7627 51.0581 33.8293 49.6928 34.512C51.4421 35.3227 52.9141 36.624 54.1088 38.416C55.3034 40.208 55.9008 42.2133 55.9008 44.432C55.9008 48.6987 54.4928 52.0267 51.6768 54.416C48.8608 56.8053 44.8501 58 39.6448 58H19.5488ZM37.7888 30.992C39.4954 30.992 40.7968 30.5653 41.6928 29.712C42.5888 28.816 43.0368 27.6427 43.0368 26.192C43.0368 24.784 42.5888 23.6533 41.6928 22.8C40.7968 21.9467 39.4954 21.52 37.7888 21.52H29.4688V30.992H37.7888ZM38.3648 49.68C40.1141 49.68 41.4794 49.168 42.4608 48.144C43.4421 47.12 43.9328 45.8827 43.9328 44.432C43.9328 42.896 43.4421 41.6373 42.4608 40.656C41.4794 39.632 40.1141 39.12 38.3648 39.12H29.4688V49.68H38.3648Z" fill="#FDF8ED"></path><path d="M18.3968 57.552L17.7887 58.0841L17.8241 58.1246L17.8647 58.1601L18.3968 57.552ZM18.3968 13.648L17.8647 13.0399L17.8444 13.0576L17.8254 13.0767L18.3968 13.648ZM51.0368 16.528L50.5126 17.1429L50.518 17.1475L50.5235 17.152L51.0368 16.528ZM53.3408 31.312L52.6921 30.8302L52.6898 30.8333L53.3408 31.312ZM49.6928 34.512L49.3314 33.7893L47.8307 34.5396L49.353 35.2451L49.6928 34.512ZM54.1088 38.416L54.781 37.9678L54.781 37.9678L54.1088 38.416ZM51.6768 54.416L51.154 53.7999L51.154 53.7999L51.6768 54.416ZM41.6928 29.712L42.25 30.2971L42.2571 30.2903L42.2641 30.2833L41.6928 29.712ZM41.6928 22.8L41.1355 23.3851L41.1355 23.3851L41.6928 22.8ZM29.4688 21.52V20.712H28.6608V21.52H29.4688ZM29.4688 30.992H28.6608V31.8H29.4688V30.992ZM42.4608 48.144L41.8774 47.5849L41.8774 47.5849L42.4608 48.144ZM42.4608 40.656L41.8774 41.2151L41.8833 41.2213L41.8894 41.2273L42.4608 40.656ZM29.4688 39.12V38.312H28.6608V39.12H29.4688ZM29.4688 49.68H28.6608V50.488H29.4688V49.68ZM19.5488 57.192C19.3308 57.192 19.133 57.1225 18.9288 56.9439L17.8647 58.1601C18.3432 58.5788 18.9134 58.808 19.5488 58.808V57.192ZM19.0048 57.0199C18.8262 56.8158 18.7567 56.6179 18.7567 56.4H17.1408C17.1408 57.0354 17.37 57.6055 17.7887 58.0841L19.0048 57.0199ZM18.7567 56.4V14.8H17.1408V56.4H18.7567ZM18.7567 14.8C18.7567 14.5189 18.8385 14.349 18.9681 14.2193L17.8254 13.0767C17.3577 13.5444 17.1408 14.1425 17.1408 14.8H18.7567ZM18.9288 14.2561C19.133 14.0775 19.3308 14.008 19.5488 14.008V12.392C18.9134 12.392 18.3432 12.6212 17.8647 13.0399L18.9288 14.2561ZM19.5488 14.008H39.0688V12.392H19.5488V14.008ZM39.0688 14.008C44.3568 14.008 48.1195 15.1029 50.5126 17.1429L51.5609 15.9131C48.7486 13.5157 44.5327 12.392 39.0688 12.392V14.008ZM50.5235 17.152C52.9473 19.1458 54.1968 22.0111 54.1968 25.872H55.8128C55.8128 21.6263 54.4169 18.2622 51.55 15.904L50.5235 17.152ZM54.1968 25.872C54.1968 27.8583 53.6832 29.4961 52.6921 30.8302L53.9894 31.7938C55.217 30.1413 55.8128 28.1524 55.8128 25.872H54.1968ZM52.6898 30.8333C51.6854 32.1993 50.5634 33.1733 49.3314 33.7893L50.0541 35.2347C51.5528 34.4853 52.8628 33.326 53.9917 31.7906L52.6898 30.8333ZM49.353 35.2451C50.952 35.9861 52.3144 37.1811 53.4365 38.8642L54.781 37.9678C53.5138 36.0669 51.9322 34.6592 50.0325 33.7789L49.353 35.2451ZM53.4365 38.8642C54.5399 40.5193 55.0928 42.3678 55.0928 44.432H56.7088C56.7088 42.0589 56.067 39.8967 54.781 37.9678L53.4365 38.8642ZM55.0928 44.432C55.0928 48.5024 53.76 51.5888 51.154 53.7999L52.1995 55.0321C55.2255 52.4646 56.7088 48.8949 56.7088 44.432H55.0928ZM51.154 53.7999C48.5339 56.023 44.7361 57.192 39.6448 57.192V58.808C44.964 58.808 49.1876 57.5876 52.1995 55.0321L51.154 53.7999ZM39.6448 57.192H19.5488V58.808H39.6448V57.192ZM37.7888 31.8C39.6232 31.8 41.1545 31.3404 42.25 30.2971L41.1355 29.1269C40.439 29.7903 39.3677 30.184 37.7888 30.184V31.8ZM42.2641 30.2833C43.3339 29.2135 43.8448 27.8233 43.8448 26.192H42.2288C42.2288 27.4621 41.8436 28.4185 41.1214 29.1407L42.2641 30.2833ZM43.8448 26.192C43.8448 24.5963 43.3288 23.2424 42.25 22.2149L41.1355 23.3851C41.8487 24.0643 42.2288 24.9717 42.2288 26.192H43.8448ZM42.25 22.2149C41.1545 21.1716 39.6232 20.712 37.7888 20.712V22.328C39.3677 22.328 40.439 22.7217 41.1355 23.3851L42.25 22.2149ZM37.7888 20.712H29.4688V22.328H37.7888V20.712ZM28.6608 21.52V30.992H30.2767V21.52H28.6608ZM29.4688 31.8H37.7888V30.184H29.4688V31.8ZM38.3648 50.488C40.2794 50.488 41.8762 49.9218 43.0441 48.7031L41.8774 47.5849C41.0827 48.4142 39.9487 48.872 38.3648 48.872V50.488ZM43.0441 48.7031C44.1732 47.5249 44.7408 46.0857 44.7408 44.432H43.1248C43.1248 45.6796 42.7109 46.7151 41.8774 47.5849L43.0441 48.7031ZM44.7408 44.432C44.7408 42.7068 44.1818 41.2344 43.0321 40.0847L41.8894 41.2273C42.7023 42.0403 43.1248 43.0852 43.1248 44.432H44.7408ZM43.0441 40.0969C41.8762 38.8782 40.2794 38.312 38.3648 38.312V39.928C39.9487 39.928 41.0827 40.3858 41.8774 41.2151L43.0441 40.0969ZM38.3648 38.312H29.4688V39.928H38.3648V38.312ZM28.6608 39.12V49.68H30.2767V39.12H28.6608ZM29.4688 50.488H38.3648V48.872H29.4688V50.488Z" fill="#FBDEB2"></path></mask><g mask="url(#mask0_157637_22256)"><path d="M-10.2188 19.9609L26.7962 84.0727" stroke="#FCE9CC" stroke-width="0.2"></path><path d="M-8.48828 18.9609L28.5267 83.0727" stroke="#FCE9CC" stroke-width="0.2"></path><path d="M-6.75391 17.9609L30.2611 82.0727" stroke="#FCE9CC" stroke-width="0.2"></path><path d="M-5.02344 16.9609L31.9915 81.0727" stroke="#FCE9CC" stroke-width="0.2"></path><path d="M-3.28906 15.9609L33.7259 80.0727" stroke="#FCE9CC" stroke-width="0.2"></path><path d="M-1.55859 14.9609L35.4564 79.0727" stroke="#FCE9CC" stroke-width="0.2"></path><path d="M0.171875 13.9609L37.1868 78.0727" stroke="#FCE9CC" stroke-width="0.2"></path><path d="M1.90625 12.9609L38.9212 77.0727" stroke="#FCE9CC" stroke-width="0.2"></path><path d="M3.63672 11.9609L40.6517 76.0727" stroke="#FCE9CC" stroke-width="0.2"></path><path d="M5.37109 10.9609L42.3861 75.0727" stroke="#FCE9CC" stroke-width="0.2"></path><path d="M7.10156 9.96094L44.1165 74.0727" stroke="#FCE9CC" stroke-width="0.2"></path><path d="M8.83203 8.96094L45.847 73.0727" stroke="#FCE9CC" stroke-width="0.2"></path><path d="M10.5664 7.96094L47.5814 72.0727" stroke="#FCE9CC" stroke-width="0.2"></path><path d="M12.2969 6.96094L49.3118 71.0727" stroke="#FCE9CC" stroke-width="0.2"></path><path d="M14.0312 5.96094L51.0462 70.0727" stroke="#FCE9CC" stroke-width="0.2"></path><path d="M15.7617 4.96094L52.7767 69.0727" stroke="#FCE9CC" stroke-width="0.2"></path><path d="M17.4922 3.96094L54.5071 68.0727" stroke="#FCE9CC" stroke-width="0.2"></path><path d="M19.2266 2.96094L56.2415 67.0727" stroke="#FCE9CC" stroke-width="0.2"></path><path d="M20.957 1.96094L57.972 66.0727" stroke="#FCE9CC" stroke-width="0.2"></path><path d="M22.6914 0.960938L59.7064 65.0727" stroke="#FCE9CC" stroke-width="0.2"></path><path d="M24.4219 -0.0390625L61.4368 64.0727" stroke="#FCE9CC" stroke-width="0.2"></path><path d="M26.1562 -1.03906L63.1712 63.0727" stroke="#FCE9CC" stroke-width="0.2"></path><path d="M27.8867 -2.03906L64.9017 62.0727" stroke="#FCE9CC" stroke-width="0.2"></path><path d="M29.6172 -3.03906L66.6321 61.0727" stroke="#FCE9CC" stroke-width="0.2"></path><path d="M31.3516 -4.03906L68.3665 60.0727" stroke="#FCE9CC" stroke-width="0.2"></path><path d="M33.082 -5.03906L70.097 59.0727" stroke="#FCE9CC" stroke-width="0.2"></path><path d="M34.8164 -6.03906L71.8314 58.0727" stroke="#FCE9CC" stroke-width="0.2"></path><path d="M36.5469 -7.03906L73.5618 57.0727" stroke="#FCE9CC" stroke-width="0.2"></path><path d="M38.2773 -8.03906L75.2923 56.0727" stroke="#FCE9CC" stroke-width="0.2"></path><path d="M40.0117 -9.03906L77.0267 55.0727" stroke="#FCE9CC" stroke-width="0.2"></path><path d="M41.7422 -10.0391L78.7571 54.0727" stroke="#FCE9CC" stroke-width="0.2"></path><path d="M43.4766 -11.0391L80.4915 53.0727" stroke="#FCE9CC" stroke-width="0.2"></path><path d="M45.207 -12.0391L82.222 52.0727" stroke="#FCE9CC" stroke-width="0.2"></path></g><path d="M18.3968 57.552L17.7887 58.0841L17.8241 58.1246L17.8647 58.1601L18.3968 57.552ZM18.3968 13.648L17.8647 13.0399L17.8444 13.0576L17.8254 13.0767L18.3968 13.648ZM51.0368 16.528L50.5126 17.1429L50.518 17.1475L50.5235 17.152L51.0368 16.528ZM53.3408 31.312L52.6921 30.8302L52.6898 30.8333L53.3408 31.312ZM49.6928 34.512L49.3314 33.7893L47.8307 34.5396L49.353 35.2451L49.6928 34.512ZM54.1088 38.416L54.781 37.9678L54.781 37.9678L54.1088 38.416ZM51.6768 54.416L51.154 53.7999L51.154 53.7999L51.6768 54.416ZM41.6928 29.712L42.25 30.2971L42.2571 30.2903L42.2641 30.2833L41.6928 29.712ZM41.6928 22.8L41.1355 23.3851L41.1355 23.3851L41.6928 22.8ZM29.4688 21.52V20.712H28.6608V21.52H29.4688ZM29.4688 30.992H28.6608V31.8H29.4688V30.992ZM42.4608 48.144L41.8774 47.5849L41.8774 47.5849L42.4608 48.144ZM42.4608 40.656L41.8774 41.2151L41.8833 41.2213L41.8894 41.2273L42.4608 40.656ZM29.4688 39.12V38.312H28.6608V39.12H29.4688ZM29.4688 49.68H28.6608V50.488H29.4688V49.68ZM19.5488 57.192C19.3308 57.192 19.133 57.1225 18.9288 56.9439L17.8647 58.1601C18.3432 58.5788 18.9134 58.808 19.5488 58.808V57.192ZM19.0048 57.0199C18.8262 56.8158 18.7567 56.6179 18.7567 56.4H17.1408C17.1408 57.0354 17.37 57.6055 17.7887 58.0841L19.0048 57.0199ZM18.7567 56.4V14.8H17.1408V56.4H18.7567ZM18.7567 14.8C18.7567 14.5189 18.8385 14.349 18.9681 14.2193L17.8254 13.0767C17.3577 13.5444 17.1408 14.1425 17.1408 14.8H18.7567ZM18.9288 14.2561C19.133 14.0775 19.3308 14.008 19.5488 14.008V12.392C18.9134 12.392 18.3432 12.6212 17.8647 13.0399L18.9288 14.2561ZM19.5488 14.008H39.0688V12.392H19.5488V14.008ZM39.0688 14.008C44.3568 14.008 48.1195 15.1029 50.5126 17.1429L51.5609 15.9131C48.7486 13.5157 44.5327 12.392 39.0688 12.392V14.008ZM50.5235 17.152C52.9473 19.1458 54.1968 22.0111 54.1968 25.872H55.8128C55.8128 21.6263 54.4169 18.2622 51.55 15.904L50.5235 17.152ZM54.1968 25.872C54.1968 27.8583 53.6832 29.4961 52.6921 30.8302L53.9894 31.7938C55.217 30.1413 55.8128 28.1524 55.8128 25.872H54.1968ZM52.6898 30.8333C51.6854 32.1993 50.5634 33.1733 49.3314 33.7893L50.0541 35.2347C51.5528 34.4853 52.8628 33.326 53.9917 31.7906L52.6898 30.8333ZM49.353 35.2451C50.952 35.9861 52.3144 37.1811 53.4365 38.8642L54.781 37.9678C53.5138 36.0669 51.9322 34.6592 50.0325 33.7789L49.353 35.2451ZM53.4365 38.8642C54.5399 40.5193 55.0928 42.3678 55.0928 44.432H56.7088C56.7088 42.0589 56.067 39.8967 54.781 37.9678L53.4365 38.8642ZM55.0928 44.432C55.0928 48.5024 53.76 51.5888 51.154 53.7999L52.1995 55.0321C55.2255 52.4646 56.7088 48.8949 56.7088 44.432H55.0928ZM51.154 53.7999C48.5339 56.023 44.7361 57.192 39.6448 57.192V58.808C44.964 58.808 49.1876 57.5876 52.1995 55.0321L51.154 53.7999ZM39.6448 57.192H19.5488V58.808H39.6448V57.192ZM37.7888 31.8C39.6232 31.8 41.1545 31.3404 42.25 30.2971L41.1355 29.1269C40.439 29.7903 39.3677 30.184 37.7888 30.184V31.8ZM42.2641 30.2833C43.3339 29.2135 43.8448 27.8233 43.8448 26.192H42.2288C42.2288 27.4621 41.8436 28.4185 41.1214 29.1407L42.2641 30.2833ZM43.8448 26.192C43.8448 24.5963 43.3288 23.2424 42.25 22.2149L41.1355 23.3851C41.8487 24.0643 42.2288 24.9717 42.2288 26.192H43.8448ZM42.25 22.2149C41.1545 21.1716 39.6232 20.712 37.7888 20.712V22.328C39.3677 22.328 40.439 22.7217 41.1355 23.3851L42.25 22.2149ZM37.7888 20.712H29.4688V22.328H37.7888V20.712ZM28.6608 21.52V30.992H30.2767V21.52H28.6608ZM29.4688 31.8H37.7888V30.184H29.4688V31.8ZM38.3648 50.488C40.2794 50.488 41.8762 49.9218 43.0441 48.7031L41.8774 47.5849C41.0827 48.4142 39.9487 48.872 38.3648 48.872V50.488ZM43.0441 48.7031C44.1732 47.5249 44.7408 46.0857 44.7408 44.432H43.1248C43.1248 45.6796 42.7109 46.7151 41.8774 47.5849L43.0441 48.7031ZM44.7408 44.432C44.7408 42.7068 44.1818 41.2344 43.0321 40.0847L41.8894 41.2273C42.7023 42.0403 43.1248 43.0852 43.1248 44.432H44.7408ZM43.0441 40.0969C41.8762 38.8782 40.2794 38.312 38.3648 38.312V39.928C39.9487 39.928 41.0827 40.3858 41.8774 41.2151L43.0441 40.0969ZM38.3648 38.312H29.4688V39.928H38.3648V38.312ZM28.6608 39.12V49.68H30.2767V39.12H28.6608ZM29.4688 50.488H38.3648V48.872H29.4688V50.488Z" fill="#FBDEB2"></path></g><defs><clipPath id="clip0_157637_22256"><rect width="72" height="72" fill="white"></rect></clipPath></defs></svg>