<svg xmlns="http://www.w3.org/2000/svg" width="1600" height="1600" viewBox="0 0 1600 1600" fill="none"><g clip-path="url(#clip0_156893_132761)"><path d="M1263.25 282.114H1343.77M1263.25 282.114V362.631M1263.25 282.114V211.802M1263.25 282.114H1178.43M1343.77 282.114H1424.29M1343.77 282.114V362.631M1343.77 282.114V211.802M1424.29 282.114H1504.81M1424.29 282.114V362.631M1424.29 282.114V211.802M1504.81 282.114H1585.33M1504.81 282.114V362.631M1504.81 282.114V211.802M1585.33 282.114H1665.85M1585.33 282.114V362.631M1585.33 282.114V211.802M1665.85 282.114H1733.85M1665.85 282.114V362.631M1665.85 282.114V211.802M1263.25 362.631H1343.77M1263.25 362.631V443.15M1263.25 362.631H1178.43M1343.77 362.631H1424.29M1343.77 362.631V443.15M1424.29 362.631H1504.81M1424.29 362.631V443.15M1504.81 362.631H1585.33M1504.81 362.631V443.15M1585.33 362.631H1665.85M1585.33 362.631V443.15M1665.85 362.631H1733.85M1665.85 362.631V443.15M1263.25 523.668H1343.77M1263.25 523.668V604.186M1263.25 523.668V443.15M1263.25 523.668H1178.43M1343.77 523.668H1424.29M1343.77 523.668V604.186M1343.77 523.668V443.15M1424.29 523.668H1504.81M1424.29 523.668V604.186M1424.29 523.668V443.15M1504.81 523.668H1585.33M1504.81 523.668V604.186M1504.81 523.668V443.15M1585.33 523.668H1665.85M1585.33 523.668V604.186M1585.33 523.668V443.15M1665.85 523.668H1733.85M1665.85 523.668V604.186M1665.85 523.668V443.15M1263.25 684.703H1343.77M1263.25 684.703V765.221M1263.25 684.703V604.186M1263.25 684.703H1178.43M1343.77 684.703H1424.29M1343.77 684.703V765.221M1343.77 684.703V604.186M1424.29 684.703H1504.81M1424.29 684.703V765.221M1424.29 684.703V604.186M1504.81 684.703H1585.33M1504.81 684.703V765.221M1504.81 684.703V604.186M1585.33 684.703H1665.85M1585.33 684.703V765.221M1585.33 684.703V604.186M1665.85 684.703H1733.85M1665.85 684.703V765.221M1665.85 684.703V604.186M1263.25 443.15H1343.77M1263.25 443.15H1178.43M1343.77 443.15H1424.29M1424.29 443.15H1504.81M1504.81 443.15H1585.33M1585.33 443.15H1665.85M1665.85 443.15H1733.85M1263.25 604.186H1343.77M1263.25 604.186H1178.43M1343.77 604.186H1424.29M1424.29 604.186H1504.81M1504.81 604.186H1585.33M1585.33 604.186H1665.85M1665.85 604.186H1733.85M1263.25 765.221H1343.77M1263.25 765.221V785.421M1263.25 765.221H1178.43M1343.77 765.221H1424.29M1343.77 765.221V785.421M1424.29 765.221H1504.81M1424.29 765.221V785.421M1504.81 765.221H1585.33M1504.81 765.221V785.421M1585.33 765.221H1665.85M1585.33 765.221V785.421M1665.85 765.221H1733.85M1665.85 765.221V785.421M1263.25 211.802H1343.77M1263.25 211.802V131.284M1263.25 211.802H1178.43M1343.77 211.802H1424.29M1343.77 211.802V131.284M1424.29 211.802H1504.81M1424.29 211.802V131.284M1504.81 211.802H1585.33M1504.81 211.802V131.284M1585.33 211.802H1665.85M1585.33 211.802V131.284M1665.85 211.802H1733.85M1665.85 211.802V131.284M1263.25 131.284H1343.77M1263.25 131.284V50.7659M1263.25 131.284H1178.43M1343.77 131.284H1424.29M1343.77 131.284V50.7659M1424.29 131.284H1504.81M1424.29 131.284V50.7659M1504.81 131.284H1585.33M1504.81 131.284V50.7659M1585.33 131.284H1665.85M1585.33 131.284V50.7659M1665.85 131.284H1733.85M1665.85 131.284V50.7659M1263.25 -29.7521H1343.77M1263.25 -29.7521V50.7659M1263.25 -29.7521V-110.27M1263.25 -29.7521H1178.43M1343.77 -29.7521H1424.29M1343.77 -29.7521V50.7659M1343.77 -29.7521V-110.27M1424.29 -29.7521H1504.81M1424.29 -29.7521V50.7659M1424.29 -29.7521V-110.27M1504.81 -29.7521H1585.33M1504.81 -29.7521V50.7659M1504.81 -29.7521V-110.27M1585.33 -29.7521H1665.85M1585.33 -29.7521L1585.33 50.7659M1585.33 -29.7521V-110.27M1665.85 -29.7521H1733.85M1665.85 -29.7521L1665.85 50.7659M1665.85 -29.7521V-110.27M1263.25 -190.787H1343.77M1263.25 -190.787V-110.27M1263.25 -190.787V-271.305M1263.25 -190.787H1178.43M1343.77 -190.787H1424.29M1343.77 -190.787V-110.27M1343.77 -190.787V-271.305M1424.29 -190.787H1504.81M1424.29 -190.787V-110.27M1424.29 -190.787V-271.305M1504.81 -190.787H1585.33M1504.81 -190.787V-110.27M1504.81 -190.787V-271.305M1585.33 -190.787H1665.85M1585.33 -190.787V-110.27M1585.33 -190.787V-271.305M1665.85 -190.787H1733.85M1665.85 -190.787V-110.27M1665.85 -190.787V-271.305M1263.25 50.7659H1343.77M1263.25 50.7659H1178.43M1343.77 50.7659H1424.29M1424.29 50.7659H1504.81M1504.81 50.7659H1585.33M1585.33 50.7659H1665.85M1665.85 50.7659H1733.85M1263.25 -110.27H1343.77M1263.25 -110.27H1178.43M1343.77 -110.27H1424.29M1424.29 -110.27H1504.81M1504.81 -110.27H1585.33M1585.33 -110.27H1665.85M1665.85 -110.27H1733.85M1263.25 -271.305H1343.77M1263.25 -271.305V-291.505M1263.25 -271.305H1178.43M1343.77 -271.305H1424.29M1343.77 -271.305V-291.505M1424.29 -271.305H1504.81M1424.29 -271.305V-291.506M1504.81 -271.305H1585.33M1504.81 -271.305V-291.505M1585.33 -271.305H1665.85M1585.33 -271.305V-291.506M1665.85 -271.305H1733.85M1665.85 -271.305V-291.506M720.554 282.114H775.838M775.838 282.114H856.357M775.838 282.114V362.631M775.838 282.114V211.802M856.357 282.114H936.873M856.357 282.114V362.631M856.357 282.114V211.802M936.873 282.114H1017.39M936.873 282.114L936.873 362.631M936.873 282.114V211.802M1017.39 282.114H1097.91M1017.39 282.114V362.631M1017.39 282.114V211.802M1097.91 282.114H1178.43M1097.91 282.114V362.631M1097.91 282.114V211.802M1178.43 282.114V362.631M1178.43 282.114L1178.43 211.802M720.554 362.631H775.838M775.838 362.631H856.357M775.838 362.631V443.15M856.357 362.631H936.873M856.357 362.631V443.15M936.873 362.631H1017.39M936.873 362.631V443.15M1017.39 362.631H1097.91M1017.39 362.631V443.15M1097.91 362.631H1178.43M1097.91 362.631V443.15M1178.43 362.631V443.15M720.554 523.668H775.838M775.838 523.668H856.357M775.838 523.668V604.186M775.838 523.668V443.15M856.357 523.668H936.873M856.357 523.668V604.186M856.357 523.668V443.15M936.873 523.668H1017.39M936.873 523.668V604.186M936.873 523.668V443.15M1017.39 523.668H1097.91M1017.39 523.668V604.186M1017.39 523.668V443.15M1097.91 523.668H1178.43M1097.91 523.668V604.186M1097.91 523.668V443.15M1178.43 523.668V604.186M1178.43 523.668V443.15M720.554 684.703H775.838M775.838 684.703H856.357M775.838 684.703V765.221M775.838 684.703V604.186M856.357 684.703H936.873M856.357 684.703V765.221M856.357 684.703V604.186M936.873 684.703H1017.39M936.873 684.703V765.221M936.873 684.703V604.186M1017.39 684.703H1097.91M1017.39 684.703V765.221M1017.39 684.703V604.186M1097.91 684.703H1178.43M1097.91 684.703V765.221M1097.91 684.703V604.186M1178.43 684.703V765.221M1178.43 684.703V604.186M720.554 443.15H775.838M775.838 443.15H856.357M856.357 443.15H936.873M936.873 443.15H1017.39M1017.39 443.15H1097.91M1097.91 443.15H1178.43M720.554 604.186H775.838M775.838 604.186H856.357M856.357 604.186H936.873M936.873 604.186H1017.39M1017.39 604.186H1097.91M1097.91 604.186H1178.43M720.554 765.221H775.838M775.838 765.221H856.357M775.838 765.221V785.421M856.357 765.221H936.873M856.357 765.221V785.421M936.873 765.221H1017.39M936.873 765.221V785.421M1017.39 765.221H1097.91M1017.39 765.221V785.421M1097.91 765.221H1178.43M1097.91 765.221V785.421M1178.43 765.221V785.421M720.554 211.802H775.838M775.838 211.802H856.357M775.838 211.802V131.284M856.357 211.802H936.873M856.357 211.802V131.284M936.873 211.802H1017.39M936.873 211.802V131.284M1017.39 211.802H1097.91M1017.39 211.802V131.284M1097.91 211.802H1178.43M1097.91 211.802V131.284M1178.43 211.802V131.284M720.555 131.284H775.838M775.838 131.284H856.357M775.838 131.284V50.7659M856.357 131.284H936.873M856.357 131.284V50.7659M936.873 131.284H1017.39M936.873 131.284V50.7659M1017.39 131.284H1097.91M1017.39 131.284V50.7659M1097.91 131.284H1178.43M1097.91 131.284L1097.91 50.7659M1178.43 131.284V50.7659M720.555 -29.7521H775.838M775.838 -29.7521H856.357M775.838 -29.7521V50.7659M775.838 -29.7521V-110.27M856.357 -29.7521H936.873M856.357 -29.7521V50.7659M856.357 -29.7521V-110.27M936.873 -29.7521H1017.39M936.873 -29.7521V50.7659M936.873 -29.7521V-110.27M1017.39 -29.7521H1097.91M1017.39 -29.7521V50.7659M1017.39 -29.7521V-110.27M1097.91 -29.7521H1178.43M1097.91 -29.7521V50.7659M1097.91 -29.7521V-110.27M1178.43 -29.7521V50.7659M1178.43 -29.7521V-110.27M720.554 -190.787H775.838M775.838 -190.787H856.357M775.838 -190.787V-110.27M775.838 -190.787V-271.305M856.357 -190.787H936.873M856.357 -190.787V-110.27M856.357 -190.787V-271.305M936.873 -190.787H1017.39M936.873 -190.787V-110.27M936.873 -190.787L936.873 -271.305M1017.39 -190.787H1097.91M1017.39 -190.787V-110.27M1017.39 -190.787V-271.305M1097.91 -190.787H1178.43M1097.91 -190.787V-110.27M1097.91 -190.787V-271.305M1178.43 -190.787V-110.27M1178.43 -190.787V-271.305M720.555 50.7659H775.838M775.838 50.7659H856.357M856.357 50.7659H936.873M936.873 50.7659H1017.39M1017.39 50.7659H1097.91M1097.91 50.7659H1178.43M720.555 -110.27H775.838M775.838 -110.27H856.357M856.357 -110.27H936.873M936.873 -110.27H1017.39M1017.39 -110.27H1097.91M1097.91 -110.27H1178.43M720.554 -271.305H775.838M775.838 -271.305H856.357M775.838 -271.305V-291.505M856.357 -271.305H936.873M856.357 -271.305V-291.505M936.873 -271.305H1017.39M936.873 -271.305V-291.506M1017.39 -271.305H1097.91M1017.39 -271.305V-291.505M1097.91 -271.305H1178.43M1097.91 -271.305V-291.506M1178.43 -271.305V-291.506M286.684 282.114H367.203M286.684 282.114V362.631M286.684 282.114V211.802M286.684 282.114H201.861M367.203 282.114H447.72M367.203 282.114V362.631M367.203 282.114V211.802M447.72 282.114H528.242M447.72 282.114V362.631M447.72 282.114L447.72 211.802M528.242 282.114H608.758M528.242 282.114V362.631M528.242 282.114V211.802M608.758 282.114H689.277M608.758 282.114V362.631M608.758 282.114V211.802M689.277 282.114H757.283M689.277 282.114V362.631M689.277 282.114V211.802M286.684 362.631H367.203M286.684 362.631V443.15M286.684 362.631H201.861M367.203 362.631H447.72M367.203 362.631V443.15M447.72 362.631H528.242M447.72 362.631V443.15M528.242 362.631H608.758M528.242 362.631V443.15M608.758 362.631H689.277M608.758 362.631V443.15M689.277 362.631H757.283M689.277 362.631V443.15M286.684 523.668H367.203M286.684 523.668V604.186M286.684 523.668V443.15M286.684 523.668H201.861M367.203 523.668H447.72M367.203 523.668V604.186M367.203 523.668V443.15M447.72 523.668H528.242M447.72 523.668V604.186M447.72 523.668V443.15M528.242 523.668H608.758M528.242 523.668V604.186M528.242 523.668V443.15M608.758 523.668H689.277M608.758 523.668V604.186M608.758 523.668L608.758 443.15M689.277 523.668H757.283M689.277 523.668V604.186M689.277 523.668L689.277 443.15M286.684 684.703H367.203M286.684 684.703V765.221M286.684 684.703V604.186M286.684 684.703H201.861M367.203 684.703H447.72M367.203 684.703V765.221M367.203 684.703V604.186M447.72 684.703H528.242M447.72 684.703V765.221M447.72 684.703V604.186M528.242 684.703H608.758M528.242 684.703V765.221M528.242 684.703V604.186M608.758 684.703H689.277M608.758 684.703V765.221M608.758 684.703V604.186M689.277 684.703H757.283M689.277 684.703V765.221M689.277 684.703V604.186M286.684 443.15H367.203M286.684 443.15H201.861M367.203 443.15H447.72M447.72 443.15H528.242M528.242 443.15H608.758M608.758 443.15H689.277M689.277 443.15H757.283M286.684 604.186H367.203M286.684 604.186H201.861M367.203 604.186H447.72M447.72 604.186H528.242M528.242 604.186H608.758M608.758 604.186H689.277M689.277 604.186H757.283M286.684 765.221H367.203M286.684 765.221V785.421M286.684 765.221H201.861M367.203 765.221H447.72M367.203 765.221V785.421M447.72 765.221H528.242M447.72 765.221V785.421M528.242 765.221H608.758M528.242 765.221V785.421M608.758 765.221H689.277M608.758 765.221V785.421M689.277 765.221H757.283M689.277 765.221V785.421M286.684 211.802H367.203M286.684 211.802V131.284M286.684 211.802H201.861M367.203 211.802H447.72M367.203 211.802V131.284M447.72 211.802H528.242M447.72 211.802V131.284M528.242 211.802H608.758M528.242 211.802V131.284M608.758 211.802H689.277M608.758 211.802V131.284M689.277 211.802H757.283M689.277 211.802V131.284M286.684 131.284H367.203M286.684 131.284V50.7659M286.684 131.284H201.861M367.203 131.284H447.72M367.203 131.284V50.7659M447.72 131.284H528.242M447.72 131.284V50.7659M528.242 131.284H608.758M528.242 131.284V50.7659M608.758 131.284H689.277M608.758 131.284V50.7659M689.277 131.284H757.284M689.277 131.284V50.7659M286.684 -29.7521H367.203M286.684 -29.7521V50.7659M286.684 -29.7521V-110.27M286.684 -29.7521H201.861M367.203 -29.7521H447.72M367.203 -29.7521V50.7659M367.203 -29.7521V-110.27M447.72 -29.7521H528.242M447.72 -29.7521V50.7659M447.72 -29.7521V-110.27M528.242 -29.7521H608.758M528.242 -29.7521V50.7659M528.242 -29.7521V-110.27M608.758 -29.7521H689.277M608.758 -29.7521L608.758 50.7659M608.758 -29.7521V-110.27M689.277 -29.7521H757.284M689.277 -29.7521L689.277 50.7659M689.277 -29.7521V-110.27M286.684 -190.787H367.203M286.684 -190.787V-110.27M286.684 -190.787V-271.305M286.684 -190.787H201.861M367.203 -190.787H447.72M367.203 -190.787V-110.27M367.203 -190.787V-271.305M447.72 -190.787H528.242M447.72 -190.787V-110.27M447.72 -190.787V-271.305M528.242 -190.787H608.758M528.242 -190.787V-110.27M528.242 -190.787V-271.305M608.758 -190.787H689.277M608.758 -190.787V-110.27M608.758 -190.787V-271.305M689.277 -190.787H757.283M689.277 -190.787V-110.27M689.277 -190.787V-271.305M286.684 50.7659H367.203M286.684 50.7659H201.861M367.203 50.7659H447.72M447.72 50.7659H528.242M528.242 50.7659H608.758M608.758 50.7659H689.277M689.277 50.7659H757.284M286.684 -110.27H367.203M286.684 -110.27H201.861M367.203 -110.27H447.72M447.72 -110.27H528.242M528.242 -110.27H608.758M608.758 -110.27H689.277M689.277 -110.27H757.284M286.684 -271.305H367.203M286.684 -271.305V-291.505M286.684 -271.305H201.861M367.203 -271.305H447.72M367.203 -271.305V-291.505M447.72 -271.305H528.242M447.72 -271.305V-291.506M528.242 -271.305H608.758M528.242 -271.305V-291.505M608.758 -271.305H689.277M608.758 -271.305V-291.506M689.277 -271.305H757.283M689.277 -271.305V-291.506M-256.016 282.114H-200.732M-200.732 282.114H-120.213M-200.732 282.114V362.631M-200.732 282.114V211.802M-120.213 282.114H-39.6965M-120.213 282.114V362.631M-120.213 282.114V211.802M-39.6965 282.114H40.825M-39.6965 282.114L-39.6965 362.631M-39.6965 282.114V211.802M40.825 282.114H121.342M40.825 282.114V362.631M40.825 282.114V211.802M121.342 282.114H201.861M121.342 282.114V362.631M121.342 282.114V211.802M201.861 282.114V362.631M201.861 282.114L201.861 211.802M-256.016 362.631H-200.732M-200.732 362.631H-120.213M-200.732 362.631V443.15M-120.213 362.631H-39.6965M-120.213 362.631V443.15M-39.6965 362.631H40.825M-39.6965 362.631V443.15M40.825 362.631H121.342M40.825 362.631V443.15M121.342 362.631H201.861M121.342 362.631L121.342 443.15M201.861 362.631V443.15M-256.016 523.668H-200.732M-200.732 523.668H-120.213M-200.732 523.668V604.186M-200.732 523.668V443.15M-120.213 523.668H-39.6965M-120.213 523.668V604.186M-120.213 523.668V443.15M-39.6965 523.668H40.825M-39.6965 523.668V604.186M-39.6965 523.668L-39.6965 443.15M40.825 523.668H121.342M40.825 523.668V604.186M40.825 523.668V443.15M121.342 523.668H201.861M121.342 523.668V604.186M121.342 523.668V443.15M201.861 523.668V604.186M201.861 523.668L201.861 443.15M-256.016 684.703H-200.732M-200.732 684.703H-120.213M-200.732 684.703V765.221M-200.732 684.703V604.186M-120.213 684.703H-39.6965M-120.213 684.703V765.221M-120.213 684.703V604.186M-39.6965 684.703H40.825M-39.6965 684.703L-39.6965 765.221M-39.6965 684.703V604.186M40.825 684.703H121.342M40.825 684.703V765.221M40.825 684.703V604.186M121.342 684.703H201.861M121.342 684.703V765.221M121.342 684.703L121.342 604.186M201.861 684.703V765.221M201.861 684.703L201.861 604.186M-256.016 443.15H-200.732M-200.732 443.15H-120.213M-120.213 443.15H-39.6965M-39.6965 443.15H40.825M40.825 443.15H121.342M121.342 443.15H201.861M-256.016 604.186H-200.732M-200.732 604.186H-120.213M-120.213 604.186H-39.6965M-39.6965 604.186H40.825M40.825 604.186H121.342M121.342 604.186H201.861M-256.016 765.221H-200.732M-200.732 765.221H-120.213M-200.732 765.221V785.421M-120.213 765.221H-39.6965M-120.213 765.221V785.421M-39.6965 765.221H40.825M-39.6965 765.221V785.421M40.825 765.221H121.342M40.825 765.221V785.421M121.342 765.221H201.861M121.342 765.221V785.421M201.861 765.221V785.421M-256.016 211.802H-200.732M-200.732 211.802H-120.213M-200.732 211.802V131.284M-120.213 211.802H-39.6965M-120.213 211.802V131.284M-39.6965 211.802H40.825M-39.6965 211.802L-39.6964 131.284M40.825 211.802H121.342M40.825 211.802V131.284M121.342 211.802H201.861M121.342 211.802V131.284M201.861 211.802V131.284M-256.015 131.284H-200.732M-200.732 131.284H-120.213M-200.732 131.284V50.7659M-120.213 131.284H-39.6964M-120.213 131.284V50.7659M-39.6964 131.284H40.825M-39.6964 131.284V50.7659M40.825 131.284H121.342M40.825 131.284V50.7659M121.342 131.284H201.861M121.342 131.284L121.342 50.7659M201.861 131.284V50.7659M-256.015 -29.7521H-200.732M-200.732 -29.7521H-120.213M-200.732 -29.7521V50.7659M-200.732 -29.7521V-110.27M-120.213 -29.7521H-39.6964M-120.213 -29.7521V50.7659M-120.213 -29.7521V-110.27M-39.6964 -29.7521H40.825M-39.6964 -29.7521L-39.6964 50.7659M-39.6964 -29.7521V-110.27M40.825 -29.7521H121.342M40.825 -29.7521V50.7659M40.825 -29.7521V-110.27M121.342 -29.7521H201.861M121.342 -29.7521V50.7659M121.342 -29.7521V-110.27M201.861 -29.7521L201.861 50.7659M201.861 -29.7521V-110.27M-256.016 -190.787H-200.732M-200.732 -190.787H-120.213M-200.732 -190.787V-110.27M-200.732 -190.787V-271.305M-120.213 -190.787H-39.6964M-120.213 -190.787V-110.27M-120.213 -190.787V-271.305M-39.6964 -190.787H40.825M-39.6964 -190.787V-110.27M-39.6964 -190.787L-39.6964 -271.305M40.825 -190.787H121.342M40.825 -190.787V-110.27M40.825 -190.787V-271.305M121.342 -190.787H201.861M121.342 -190.787L121.342 -110.27M121.342 -190.787V-271.305M201.861 -190.787L201.861 -110.27M201.861 -190.787V-271.305M-256.015 50.7659H-200.732M-200.732 50.7659H-120.213M-120.213 50.7659H-39.6964M-39.6964 50.7659H40.825M40.825 50.7659H121.342M121.342 50.7659H201.861M-256.015 -110.27H-200.732M-200.732 -110.27H-120.213M-120.213 -110.27H-39.6964M-39.6964 -110.27H40.825M40.825 -110.27H121.342M121.342 -110.27H201.861M-256.016 -271.305H-200.732M-200.732 -271.305H-120.213M-200.732 -271.305V-291.505M-120.213 -271.305H-39.6964M-120.213 -271.305V-291.505M-39.6964 -271.305H40.825M-39.6964 -271.305V-291.506M40.825 -271.305H121.342M40.825 -271.305V-291.505M121.342 -271.305H201.861M121.342 -271.305V-291.506M201.861 -271.305V-291.506M1263.25 1318.91H1343.77M1263.25 1318.91V1399.42M1263.25 1318.91V1248.59M1263.25 1318.91H1178.43M1343.77 1318.91H1424.29M1343.77 1318.91V1399.42M1343.77 1318.91V1248.59M1424.29 1318.91H1504.81M1424.29 1318.91V1399.42M1424.29 1318.91V1248.59M1504.81 1318.91H1585.33M1504.81 1318.91V1399.42M1504.81 1318.91V1248.59M1585.33 1318.91H1665.85M1585.33 1318.91V1399.42M1585.33 1318.91V1248.59M1665.85 1318.91H1733.85M1665.85 1318.91V1399.42M1665.85 1318.91V1248.59M1263.25 1399.42H1343.77M1263.25 1399.42V1479.94M1263.25 1399.42H1178.43M1343.77 1399.42H1424.29M1343.77 1399.42V1479.94M1424.29 1399.42H1504.81M1424.29 1399.42V1479.94M1504.81 1399.42H1585.33M1504.81 1399.42V1479.94M1585.33 1399.42H1665.85M1585.33 1399.42V1479.94M1665.85 1399.42H1733.85M1665.85 1399.42V1479.94M1263.25 1560.46H1343.77M1263.25 1560.46V1640.98M1263.25 1560.46V1479.94M1263.25 1560.46H1178.43M1343.77 1560.46H1424.29M1343.77 1560.46V1640.98M1343.77 1560.46V1479.94M1424.29 1560.46H1504.81M1424.29 1560.46V1640.98M1424.29 1560.46V1479.94M1504.81 1560.46H1585.33M1504.81 1560.46V1640.98M1504.81 1560.46V1479.94M1585.33 1560.46H1665.85M1585.33 1560.46V1640.98M1585.33 1560.46V1479.94M1665.85 1560.46H1733.85M1665.85 1560.46V1640.98M1665.85 1560.46V1479.94M1263.25 1721.5H1343.77M1263.25 1721.5V1802.01M1263.25 1721.5V1640.98M1263.25 1721.5H1178.43M1343.77 1721.5H1424.29M1343.77 1721.5V1802.01M1343.77 1721.5V1640.98M1424.29 1721.5H1504.81M1424.29 1721.5V1802.01M1424.29 1721.5V1640.98M1504.81 1721.5H1585.33M1504.81 1721.5V1802.01M1504.81 1721.5V1640.98M1585.33 1721.5H1665.85M1585.33 1721.5V1802.01M1585.33 1721.5V1640.98M1665.85 1721.5H1733.85M1665.85 1721.5V1802.01M1665.85 1721.5V1640.98M1263.25 1479.94H1343.77M1263.25 1479.94H1178.43M1343.77 1479.94H1424.29M1424.29 1479.94H1504.81M1504.81 1479.94H1585.33M1585.33 1479.94H1665.85M1665.85 1479.94H1733.85M1263.25 1640.98H1343.77M1263.25 1640.98H1178.43M1343.77 1640.98H1424.29M1424.29 1640.98H1504.81M1504.81 1640.98H1585.33M1585.33 1640.98H1665.85M1665.85 1640.98H1733.85M1263.25 1802.01H1343.77M1263.25 1802.01V1822.21M1263.25 1802.01H1178.43M1343.77 1802.01H1424.29M1343.77 1802.01V1822.21M1424.29 1802.01H1504.81M1424.29 1802.01V1822.21M1504.81 1802.01H1585.33M1504.81 1802.01V1822.21M1585.33 1802.01H1665.85M1585.33 1802.01V1822.21M1665.85 1802.01H1733.85M1665.85 1802.01V1822.21M1263.25 1248.59H1343.77M1263.25 1248.59V1168.08M1263.25 1248.59H1178.43M1343.77 1248.59H1424.29M1343.77 1248.59V1168.08M1424.29 1248.59H1504.81M1424.29 1248.59V1168.08M1504.81 1248.59H1585.33M1504.81 1248.59V1168.08M1585.33 1248.59H1665.85M1585.33 1248.59V1168.08M1665.85 1248.59H1733.85M1665.85 1248.59V1168.08M1263.25 1168.08H1343.77M1263.25 1168.08V1087.56M1263.25 1168.08H1178.43M1343.77 1168.08H1424.29M1343.77 1168.08V1087.56M1424.29 1168.08H1504.81M1424.29 1168.08V1087.56M1504.81 1168.08H1585.33M1504.81 1168.08V1087.56M1585.33 1168.08H1665.85M1585.33 1168.08V1087.56M1665.85 1168.08H1733.85M1665.85 1168.08V1087.56M1263.25 1007.04H1343.77M1263.25 1007.04V1087.56M1263.25 1007.04V926.523M1263.25 1007.04H1178.43M1343.77 1007.04H1424.29M1343.77 1007.04V1087.56M1343.77 1007.04V926.523M1424.29 1007.04H1504.81M1424.29 1007.04V1087.56M1424.29 1007.04V926.523M1504.81 1007.04H1585.33M1504.81 1007.04V1087.56M1504.81 1007.04V926.523M1585.33 1007.04H1665.85M1585.33 1007.04L1585.33 1087.56M1585.33 1007.04V926.523M1665.85 1007.04H1733.85M1665.85 1007.04L1665.85 1087.56M1665.85 1007.04V926.523M1263.25 846.005H1343.77M1263.25 846.005V926.523M1263.25 846.005V765.487M1263.25 846.005H1178.43M1343.77 846.005H1424.29M1343.77 846.005V926.523M1343.77 846.005V765.487M1424.29 846.005H1504.81M1424.29 846.005V926.523M1424.29 846.005V765.487M1504.81 846.005H1585.33M1504.81 846.005V926.523M1504.81 846.005V765.487M1585.33 846.005H1665.85M1585.33 846.005V926.523M1585.33 846.005V765.487M1665.85 846.005H1733.85M1665.85 846.005V926.523M1665.85 846.005V765.487M1263.25 1087.56H1343.77M1263.25 1087.56H1178.43M1343.77 1087.56H1424.29M1424.29 1087.56H1504.81M1504.81 1087.56H1585.33M1585.33 1087.56H1665.85M1665.85 1087.56H1733.85M1263.25 926.523H1343.77M1263.25 926.523H1178.43M1343.77 926.523H1424.29M1424.29 926.523H1504.81M1504.81 926.523H1585.33M1585.33 926.523H1665.85M1665.85 926.523H1733.85M1263.25 765.487H1343.77M1263.25 765.487V745.287M1263.25 765.487H1178.43M1343.77 765.487H1424.29M1343.77 765.487V745.287M1424.29 765.487H1504.81M1424.29 765.487V745.287M1504.81 765.487H1585.33M1504.81 765.487V745.287M1585.33 765.487H1665.85M1585.33 765.487V745.287M1665.85 765.487H1733.85M1665.85 765.487V745.287M720.554 1318.91H775.838M775.838 1318.91H856.357M775.838 1318.91V1399.42M775.838 1318.91V1248.59M856.357 1318.91H936.873M856.357 1318.91V1399.42M856.357 1318.91V1248.59M936.873 1318.91H1017.39M936.873 1318.91L936.873 1399.42M936.873 1318.91V1248.59M1017.39 1318.91H1097.91M1017.39 1318.91V1399.42M1017.39 1318.91V1248.59M1097.91 1318.91H1178.43M1097.91 1318.91V1399.42M1097.91 1318.91V1248.59M1178.43 1318.91V1399.42M1178.43 1318.91L1178.43 1248.59M720.554 1399.42H775.838M775.838 1399.42H856.357M775.838 1399.42V1479.94M856.357 1399.42H936.873M856.357 1399.42V1479.94M936.873 1399.42H1017.39M936.873 1399.42V1479.94M1017.39 1399.42H1097.91M1017.39 1399.42V1479.94M1097.91 1399.42H1178.43M1097.91 1399.42V1479.94M1178.43 1399.42V1479.94M720.554 1560.46H775.838M775.838 1560.46H856.357M775.838 1560.46V1640.98M775.838 1560.46V1479.94M856.357 1560.46H936.873M856.357 1560.46V1640.98M856.357 1560.46V1479.94M936.873 1560.46H1017.39M936.873 1560.46V1640.98M936.873 1560.46V1479.94M1017.39 1560.46H1097.91M1017.39 1560.46V1640.98M1017.39 1560.46V1479.94M1097.91 1560.46H1178.43M1097.91 1560.46V1640.98M1097.91 1560.46V1479.94M1178.43 1560.46V1640.98M1178.43 1560.46V1479.94M720.554 1721.5H775.838M775.838 1721.5H856.357M775.838 1721.5V1802.01M775.838 1721.5V1640.98M856.357 1721.5H936.873M856.357 1721.5V1802.01M856.357 1721.5V1640.98M936.873 1721.5H1017.39M936.873 1721.5V1802.01M936.873 1721.5V1640.98M1017.39 1721.5H1097.91M1017.39 1721.5V1802.01M1017.39 1721.5V1640.98M1097.91 1721.5H1178.43M1097.91 1721.5V1802.01M1097.91 1721.5V1640.98M1178.43 1721.5V1802.01M1178.43 1721.5V1640.98M720.554 1479.94H775.838M775.838 1479.94H856.357M856.357 1479.94H936.873M936.873 1479.94H1017.39M1017.39 1479.94H1097.91M1097.91 1479.94H1178.43M720.554 1640.98H775.838M775.838 1640.98H856.357M856.357 1640.98H936.873M936.873 1640.98H1017.39M1017.39 1640.98H1097.91M1097.91 1640.98H1178.43M720.554 1802.01H775.838M775.838 1802.01H856.357M775.838 1802.01V1822.21M856.357 1802.01H936.873M856.357 1802.01V1822.21M936.873 1802.01H1017.39M936.873 1802.01V1822.21M1017.39 1802.01H1097.91M1017.39 1802.01V1822.21M1097.91 1802.01H1178.43M1097.91 1802.01V1822.21M1178.43 1802.01V1822.21M720.554 1248.59H775.838M775.838 1248.59H856.357M775.838 1248.59V1168.08M856.357 1248.59H936.873M856.357 1248.59V1168.08M936.873 1248.59H1017.39M936.873 1248.59V1168.08M1017.39 1248.59H1097.91M1017.39 1248.59V1168.08M1097.91 1248.59H1178.43M1097.91 1248.59V1168.08M1178.43 1248.59V1168.08M720.555 1168.08H775.838M775.838 1168.08H856.357M775.838 1168.08V1087.56M856.357 1168.08H936.873M856.357 1168.08V1087.56M936.873 1168.08H1017.39M936.873 1168.08V1087.56M1017.39 1168.08H1097.91M1017.39 1168.08V1087.56M1097.91 1168.08H1178.43M1097.91 1168.08L1097.91 1087.56M1178.43 1168.08V1087.56M720.555 1007.04H775.838M775.838 1007.04H856.357M775.838 1007.04V1087.56M775.838 1007.04V926.523M856.357 1007.04H936.873M856.357 1007.04V1087.56M856.357 1007.04V926.523M936.873 1007.04H1017.39M936.873 1007.04V1087.56M936.873 1007.04V926.523M1017.39 1007.04H1097.91M1017.39 1007.04V1087.56M1017.39 1007.04V926.523M1097.91 1007.04H1178.43M1097.91 1007.04V1087.56M1097.91 1007.04V926.523M1178.43 1007.04V1087.56M1178.43 1007.04V926.523M720.554 846.005H775.838M775.838 846.005H856.357M775.838 846.005V926.523M775.838 846.005V765.487M856.357 846.005H936.873M856.357 846.005V926.523M856.357 846.005V765.487M936.873 846.005H1017.39M936.873 846.005V926.523M936.873 846.005L936.873 765.487M1017.39 846.005H1097.91M1017.39 846.005V926.523M1017.39 846.005V765.487M1097.91 846.005H1178.43M1097.91 846.005V926.523M1097.91 846.005V765.487M1178.43 846.005V926.523M1178.43 846.005V765.487M720.555 1087.56H775.838M775.838 1087.56H856.357M856.357 1087.56H936.873M936.873 1087.56H1017.39M1017.39 1087.56H1097.91M1097.91 1087.56H1178.43M720.555 926.523H775.838M775.838 926.523H856.357M856.357 926.523H936.873M936.873 926.523H1017.39M1017.39 926.523H1097.91M1097.91 926.523H1178.43M720.554 765.487H775.838M775.838 765.487H856.357M775.838 765.487V745.287M856.357 765.487H936.873M856.357 765.487V745.287M936.873 765.487H1017.39M936.873 765.487V745.287M1017.39 765.487H1097.91M1017.39 765.487V745.287M1097.91 765.487H1178.43M1097.91 765.487V745.287M1178.43 765.487V745.287M286.684 1318.91H367.203M286.684 1318.91V1399.42M286.684 1318.91V1248.59M286.684 1318.91H201.861M367.203 1318.91H447.72M367.203 1318.91V1399.42M367.203 1318.91V1248.59M447.72 1318.91H528.242M447.72 1318.91V1399.42M447.72 1318.91L447.72 1248.59M528.242 1318.91H608.758M528.242 1318.91V1399.42M528.242 1318.91V1248.59M608.758 1318.91H689.277M608.758 1318.91V1399.42M608.758 1318.91V1248.59M689.277 1318.91H757.283M689.277 1318.91V1399.42M689.277 1318.91V1248.59M286.684 1399.42H367.203M286.684 1399.42V1479.94M286.684 1399.42H201.861M367.203 1399.42H447.72M367.203 1399.42V1479.94M447.72 1399.42H528.242M447.72 1399.42V1479.94M528.242 1399.42H608.758M528.242 1399.42V1479.94M608.758 1399.42H689.277M608.758 1399.42V1479.94M689.277 1399.42H757.283M689.277 1399.42V1479.94M286.684 1560.46H367.203M286.684 1560.46V1640.98M286.684 1560.46V1479.94M286.684 1560.46H201.861M367.203 1560.46H447.72M367.203 1560.46V1640.98M367.203 1560.46V1479.94M447.72 1560.46H528.242M447.72 1560.46V1640.98M447.72 1560.46V1479.94M528.242 1560.46H608.758M528.242 1560.46V1640.98M528.242 1560.46V1479.94M608.758 1560.46H689.277M608.758 1560.46V1640.98M608.758 1560.46L608.758 1479.94M689.277 1560.46H757.283M689.277 1560.46V1640.98M689.277 1560.46L689.277 1479.94M286.684 1721.5H367.203M286.684 1721.5V1802.01M286.684 1721.5V1640.98M286.684 1721.5H201.861M367.203 1721.5H447.72M367.203 1721.5V1802.01M367.203 1721.5V1640.98M447.72 1721.5H528.242M447.72 1721.5V1802.01M447.72 1721.5V1640.98M528.242 1721.5H608.758M528.242 1721.5V1802.01M528.242 1721.5V1640.98M608.758 1721.5H689.277M608.758 1721.5V1802.01M608.758 1721.5V1640.98M689.277 1721.5H757.283M689.277 1721.5V1802.01M689.277 1721.5V1640.98M286.684 1479.94H367.203M286.684 1479.94H201.861M367.203 1479.94H447.72M447.72 1479.94H528.242M528.242 1479.94H608.758M608.758 1479.94H689.277M689.277 1479.94H757.283M286.684 1640.98H367.203M286.684 1640.98H201.861M367.203 1640.98H447.72M447.72 1640.98H528.242M528.242 1640.98H608.758M608.758 1640.98H689.277M689.277 1640.98H757.283M286.684 1802.01H367.203M286.684 1802.01V1822.21M286.684 1802.01H201.861M367.203 1802.01H447.72M367.203 1802.01V1822.21M447.72 1802.01H528.242M447.72 1802.01V1822.21M528.242 1802.01H608.758M528.242 1802.01V1822.21M608.758 1802.01H689.277M608.758 1802.01V1822.21M689.277 1802.01H757.283M689.277 1802.01V1822.21M286.684 1248.59H367.203M286.684 1248.59V1168.08M286.684 1248.59H201.861M367.203 1248.59H447.72M367.203 1248.59V1168.08M447.72 1248.59H528.242M447.72 1248.59V1168.08M528.242 1248.59H608.758M528.242 1248.59V1168.08M608.758 1248.59H689.277M608.758 1248.59V1168.08M689.277 1248.59H757.283M689.277 1248.59V1168.08M286.684 1168.08H367.203M286.684 1168.08V1087.56M286.684 1168.08H201.861M367.203 1168.08H447.72M367.203 1168.08V1087.56M447.72 1168.08H528.242M447.72 1168.08V1087.56M528.242 1168.08H608.758M528.242 1168.08V1087.56M608.758 1168.08H689.277M608.758 1168.08V1087.56M689.277 1168.08H757.284M689.277 1168.08V1087.56M286.684 1007.04H367.203M286.684 1007.04V1087.56M286.684 1007.04V926.523M286.684 1007.04H201.861M367.203 1007.04H447.72M367.203 1007.04V1087.56M367.203 1007.04V926.523M447.72 1007.04H528.242M447.72 1007.04V1087.56M447.72 1007.04V926.523M528.242 1007.04H608.758M528.242 1007.04V1087.56M528.242 1007.04V926.523M608.758 1007.04H689.277M608.758 1007.04L608.758 1087.56M608.758 1007.04V926.523M689.277 1007.04H757.284M689.277 1007.04L689.277 1087.56M689.277 1007.04V926.523M286.684 846.005H367.203M286.684 846.005V926.523M286.684 846.005V765.487M286.684 846.005H201.861M367.203 846.005H447.72M367.203 846.005V926.523M367.203 846.005V765.487M447.72 846.005H528.242M447.72 846.005V926.523M447.72 846.005V765.487M528.242 846.005H608.758M528.242 846.005V926.523M528.242 846.005V765.487M608.758 846.005H689.277M608.758 846.005V926.523M608.758 846.005V765.487M689.277 846.005H757.283M689.277 846.005V926.523M689.277 846.005V765.487M286.684 1087.56H367.203M286.684 1087.56H201.861M367.203 1087.56H447.72M447.72 1087.56H528.242M528.242 1087.56H608.758M608.758 1087.56H689.277M689.277 1087.56H757.284M286.684 926.523H367.203M286.684 926.523H201.861M367.203 926.523H447.72M447.72 926.523H528.242M528.242 926.523H608.758M608.758 926.523H689.277M689.277 926.523H757.284M286.684 765.487H367.203M286.684 765.487V745.287M286.684 765.487H201.861M367.203 765.487H447.72M367.203 765.487V745.287M447.72 765.487H528.242M447.72 765.487V745.287M528.242 765.487H608.758M528.242 765.487V745.287M608.758 765.487H689.277M608.758 765.487V745.287M689.277 765.487H757.283M689.277 765.487V745.287M-256.016 1318.91H-200.732M-200.732 1318.91H-120.213M-200.732 1318.91V1399.42M-200.732 1318.91V1248.59M-120.213 1318.91H-39.6965M-120.213 1318.91V1399.42M-120.213 1318.91V1248.59M-39.6965 1318.91H40.825M-39.6965 1318.91L-39.6965 1399.42M-39.6965 1318.91V1248.59M40.825 1318.91H121.342M40.825 1318.91V1399.42M40.825 1318.91V1248.59M121.342 1318.91H201.861M121.342 1318.91V1399.42M121.342 1318.91V1248.59M201.861 1318.91V1399.42M201.861 1318.91L201.861 1248.59M-256.016 1399.42H-200.732M-200.732 1399.42H-120.213M-200.732 1399.42V1479.94M-120.213 1399.42H-39.6965M-120.213 1399.42V1479.94M-39.6965 1399.42H40.825M-39.6965 1399.42V1479.94M40.825 1399.42H121.342M40.825 1399.42V1479.94M121.342 1399.42H201.861M121.342 1399.42L121.342 1479.94M201.861 1399.42V1479.94M-256.016 1560.46H-200.732M-200.732 1560.46H-120.213M-200.732 1560.46V1640.98M-200.732 1560.46V1479.94M-120.213 1560.46H-39.6965M-120.213 1560.46V1640.98M-120.213 1560.46V1479.94M-39.6965 1560.46H40.825M-39.6965 1560.46V1640.98M-39.6965 1560.46L-39.6965 1479.94M40.825 1560.46H121.342M40.825 1560.46V1640.98M40.825 1560.46V1479.94M121.342 1560.46H201.861M121.342 1560.46V1640.98M121.342 1560.46V1479.94M201.861 1560.46V1640.98M201.861 1560.46L201.861 1479.94M-256.016 1721.5H-200.732M-200.732 1721.5H-120.213M-200.732 1721.5V1802.01M-200.732 1721.5V1640.98M-120.213 1721.5H-39.6965M-120.213 1721.5V1802.01M-120.213 1721.5V1640.98M-39.6965 1721.5H40.825M-39.6965 1721.5L-39.6965 1802.01M-39.6965 1721.5V1640.98M40.825 1721.5H121.342M40.825 1721.5V1802.01M40.825 1721.5V1640.98M121.342 1721.5H201.861M121.342 1721.5V1802.01M121.342 1721.5L121.342 1640.98M201.861 1721.5V1802.01M201.861 1721.5L201.861 1640.98M-256.016 1479.94H-200.732M-200.732 1479.94H-120.213M-120.213 1479.94H-39.6965M-39.6965 1479.94H40.825M40.825 1479.94H121.342M121.342 1479.94H201.861M-256.016 1640.98H-200.732M-200.732 1640.98H-120.213M-120.213 1640.98H-39.6965M-39.6965 1640.98H40.825M40.825 1640.98H121.342M121.342 1640.98H201.861M-256.016 1802.01H-200.732M-200.732 1802.01H-120.213M-200.732 1802.01V1822.21M-120.213 1802.01H-39.6965M-120.213 1802.01V1822.21M-39.6965 1802.01H40.825M-39.6965 1802.01V1822.21M40.825 1802.01H121.342M40.825 1802.01V1822.21M121.342 1802.01H201.861M121.342 1802.01V1822.21M201.861 1802.01V1822.21M-256.016 1248.59H-200.732M-200.732 1248.59H-120.213M-200.732 1248.59V1168.08M-120.213 1248.59H-39.6965M-120.213 1248.59V1168.08M-39.6965 1248.59H40.825M-39.6965 1248.59L-39.6964 1168.08M40.825 1248.59H121.342M40.825 1248.59V1168.08M121.342 1248.59H201.861M121.342 1248.59V1168.08M201.861 1248.59V1168.08M-256.015 1168.08H-200.732M-200.732 1168.08H-120.213M-200.732 1168.08V1087.56M-120.213 1168.08H-39.6964M-120.213 1168.08V1087.56M-39.6964 1168.08H40.825M-39.6964 1168.08V1087.56M40.825 1168.08H121.342M40.825 1168.08V1087.56M121.342 1168.08H201.861M121.342 1168.08L121.342 1087.56M201.861 1168.08V1087.56M-256.015 1007.04H-200.732M-200.732 1007.04H-120.213M-200.732 1007.04V1087.56M-200.732 1007.04V926.523M-120.213 1007.04H-39.6964M-120.213 1007.04V1087.56M-120.213 1007.04V926.523M-39.6964 1007.04H40.825M-39.6964 1007.04L-39.6964 1087.56M-39.6964 1007.04V926.523M40.825 1007.04H121.342M40.825 1007.04V1087.56M40.825 1007.04V926.523M121.342 1007.04H201.861M121.342 1007.04V1087.56M121.342 1007.04V926.523M201.861 1007.04L201.861 1087.56M201.861 1007.04V926.523M-256.016 846.005H-200.732M-200.732 846.005H-120.213M-200.732 846.005V926.523M-200.732 846.005V765.487M-120.213 846.005H-39.6964M-120.213 846.005V926.523M-120.213 846.005V765.487M-39.6964 846.005H40.825M-39.6964 846.005V926.523M-39.6964 846.005L-39.6964 765.487M40.825 846.005H121.342M40.825 846.005V926.523M40.825 846.005V765.487M121.342 846.005H201.861M121.342 846.005L121.342 926.523M121.342 846.005V765.487M201.861 846.005L201.861 926.523M201.861 846.005V765.487M-256.015 1087.56H-200.732M-200.732 1087.56H-120.213M-120.213 1087.56H-39.6964M-39.6964 1087.56H40.825M40.825 1087.56H121.342M121.342 1087.56H201.861M-256.015 926.523H-200.732M-200.732 926.523H-120.213M-120.213 926.523H-39.6964M-39.6964 926.523H40.825M40.825 926.523H121.342M121.342 926.523H201.861M-256.016 765.487H-200.732M-200.732 765.487H-120.213M-200.732 765.487V745.287M-120.213 765.487H-39.6964M-120.213 765.487V745.287M-39.6964 765.487H40.825M-39.6964 765.487V745.287M40.825 765.487H121.342M40.825 765.487V745.287M121.342 765.487H201.861M121.342 765.487V745.287M201.861 765.487V745.287" stroke="#333333" stroke-opacity="0.1" stroke-width="4"></path></g><defs><clipPath id="clip0_156893_132761"><rect width="1600" height="1600" fill="white"></rect></clipPath></defs></svg>