<svg width="208" height="43" viewBox="0 0 208 43" fill="none" xmlns="http://www.w3.org/2000/svg">
<g clip-path="url(#clip0_157982_1112)">
<path d="M0.000488281 0V42.9814H36.4583V0H0.000488281ZM4.7231 38.4559V23.7964L31.7369 38.4559H4.7231ZM31.7369 33.1019L9.5518 21.4477L31.7369 9.94346V33.1007V33.1019ZM4.7231 19.1885V4.60449H31.7369L4.7231 19.1885Z" fill="#EF3837"/>
<path d="M67.0479 38.4549L58.0235 24.4497L53.8802 29.0402V38.4549H46.4673V5.10547H53.8802V19.9544L66.5878 5.10547H75.1975L62.8581 18.8771L75.6576 38.456H67.0479V38.4549Z" fill="#EF3837"/>
<path d="M75.9331 31.6161C75.9331 27.8693 78.0512 24.8244 84.1279 24.3096L89.1926 23.8877C91.1725 23.7006 91.7244 23.0916 91.7244 22.0608C91.7244 20.0003 90.4812 18.8288 88.0877 18.8288C85.6942 18.8288 84.4509 19.9061 84.2197 22.0608H77.2216C77.2216 17.0484 80.3529 13.8164 87.9959 13.8164C95.6388 13.8164 98.7702 17.0484 98.7702 22.0608V32.2715C98.7702 35.55 99.0467 37.6582 99.5068 38.4542H93.1071C92.4622 37.6117 92.0939 36.6738 92.0939 35.0816C90.7589 37.6105 88.549 38.9226 84.5892 38.9226C78.9261 38.9226 75.9331 36.066 75.9331 31.6149V31.6161ZM91.7256 28.7118V27.3533C91.4037 27.7275 90.4823 27.9622 89.1938 28.1029L86.6156 28.29C83.9908 28.5247 82.9788 29.6021 82.9788 31.1001C82.9788 32.927 84.0838 34.1449 86.6621 34.1449C89.8852 34.1449 91.7268 31.6626 91.7268 28.7118H91.7256Z" fill="#EF3837"/>
<path d="M102.268 38.4549V5.10547H109.313V38.4549H102.268Z" fill="#EF3837"/>
<path d="M119.488 38.4527L110.97 14.2832H118.291L123.77 32.27L129.249 14.2832H136.57L128.052 38.4527H119.489H119.488Z" fill="#EF3837"/>
<path d="M137.766 7.63353C137.766 5.57302 139.192 4.02734 141.725 4.02734C144.258 4.02734 145.73 5.57302 145.73 7.63353C145.73 9.69405 144.304 11.2397 141.725 11.2397C139.147 11.2397 137.766 9.69405 137.766 7.63353ZM138.226 38.4541V14.2846H145.27V38.4541H138.226Z" fill="#EF3837"/>
<path d="M148.769 30.256V14.2832H155.814V28.8509C155.814 31.661 156.827 33.1602 159.22 33.1602C161.89 33.1602 163.64 31.2403 163.64 27.7736V14.2832H170.685V38.4527H164.008V34.7989C162.765 37.1406 160.74 38.921 156.964 38.921C151.531 38.921 148.769 36.1109 148.769 30.256Z" fill="#EF3837"/>
<path d="M201.164 38.4542V23.6994C201.164 20.8417 200.197 19.5772 198.309 19.5772C196.191 19.5772 194.396 21.31 194.396 24.7291V38.4531H187.674V23.6983C187.674 20.8405 186.661 19.5761 184.819 19.5761C182.656 19.5761 180.906 21.3089 180.906 24.7279V38.4519H174.184V14.2848H180.861V17.9386C182.057 15.5968 183.899 13.8164 187.122 13.8164C190.529 13.8164 192.739 15.175 193.798 18.0316C194.995 15.5492 197.252 13.8164 200.475 13.8164C205.401 13.8164 207.933 16.6265 207.933 22.4815V38.4542H201.165H201.164Z" fill="#EF3837"/>
</g>
<defs>
<clipPath id="clip0_157982_1112">
<rect width="208" height="43" fill="white"/>
</clipPath>
</defs>
</svg>
