<svg xmlns="http://www.w3.org/2000/svg" width="3096" height="1697" viewBox="0 0 3096 1697" fill="none"><path d="M377.734 460.425H313.104M377.734 460.425V525.054M377.734 460.425V403.988M377.734 460.425H445.82M313.104 460.425H248.476M313.104 460.425V525.054M313.104 460.425V403.988M248.476 460.425H183.844M248.476 460.425V525.054M248.476 460.425V403.988M183.844 460.425H119.217M183.844 460.425V525.054M183.844 460.425V403.988M119.217 460.425H54.5866M119.217 460.425V525.054M119.217 460.425V403.988M54.5866 460.425H0.000366211M54.5866 460.425V525.054M54.5866 460.425V403.988M377.734 525.054H313.104M377.734 525.054V589.684M377.734 525.054H445.82M313.104 525.054H248.476M313.104 525.054V589.684M248.476 525.054H183.844M248.476 525.054V589.684M183.844 525.054H119.217M183.844 525.054V589.684M119.217 525.054H54.5866M119.217 525.054V589.684M54.5866 525.054H0.000366211M54.5866 525.054V589.684M377.734 654.313H313.104M377.734 654.313V718.942M377.734 654.313V589.684M377.734 654.313H445.82M313.104 654.313H248.476M313.104 654.313V718.942M313.104 654.313V589.684M248.476 654.313H183.844M248.476 654.313V718.942M248.476 654.313V589.684M183.844 654.313H119.217M183.844 654.313V718.942M183.844 654.313V589.684M119.217 654.313H54.5866M119.217 654.313V718.942M119.217 654.313V589.684M54.5866 654.313H0.000366211M54.5866 654.313V718.942M54.5866 654.313V589.684M377.734 783.57H313.104M377.734 783.57V848.199M377.734 783.57V718.942M377.734 783.57H445.82M313.104 783.57H248.476M313.104 783.57V848.199M313.104 783.57V718.942M248.476 783.57H183.844M248.476 783.57V848.199M248.476 783.57V718.942M183.844 783.57H119.217M183.844 783.57V848.199M183.844 783.57V718.942M119.217 783.57H54.5866M119.217 783.57V848.199M119.217 783.57V718.942M54.5866 783.57H0.000366211M54.5866 783.57V848.199M54.5866 783.57V718.942M377.734 589.684H313.104M377.734 589.684H445.82M313.104 589.684H248.476M248.476 589.684H183.844M183.844 589.684H119.217M119.217 589.684H54.5866M54.5866 589.684H0.000366211M377.734 718.942H313.104M377.734 718.942H445.82M313.104 718.942H248.476M248.476 718.942H183.844M183.844 718.942H119.217M119.217 718.942H54.5866M54.5866 718.942H0.000366211M377.734 848.199H313.104M377.734 848.199V864.413M377.734 848.199H445.82M313.104 848.199H248.476M313.104 848.199V864.413M248.476 848.199H183.844M248.476 848.199V864.413M183.844 848.199H119.217M183.844 848.199V864.413M119.217 848.199H54.5866M119.217 848.199V864.413M54.5866 848.199H0.000366211M54.5866 848.199V864.413M377.734 403.988H313.104M377.734 403.988V339.359M377.734 403.988H445.82M313.104 403.988H248.476M313.104 403.988V339.359M248.476 403.988H183.844M248.476 403.988V339.359M183.844 403.988H119.217M183.844 403.988V339.359M119.217 403.988H54.5866M119.217 403.988V339.359M54.5866 403.988H0.000366211M54.5866 403.988V339.359M377.734 339.359H313.104M377.734 339.359V274.73M377.734 339.359H445.82M313.104 339.359H248.476M313.104 339.359V274.73M248.476 339.359H183.844M248.476 339.359V274.73M183.844 339.359H119.217M183.844 339.359V274.73M119.217 339.359H54.5866M119.217 339.359V274.73M54.5866 339.359H0M54.5866 339.359V274.73M377.734 210.101H313.104M377.734 210.101V274.73M377.734 210.101V145.472M377.734 210.101H445.82M313.104 210.101H248.476M313.104 210.101V274.73M313.104 210.101V145.472M248.476 210.101H183.844M248.476 210.101V274.73M248.476 210.101V145.472M183.844 210.101H119.216M183.844 210.101V274.73M183.844 210.101V145.472M119.216 210.101H54.5864M119.216 210.101L119.217 274.73M119.216 210.101V145.472M54.5864 210.101H0M54.5864 210.101L54.5866 274.73M54.5864 210.101V145.472M377.734 80.8436H313.104M377.734 80.8436V145.472M377.734 80.8436V16.2146M377.734 80.8436H445.82M313.104 80.8436H248.476M313.104 80.8436V145.472M313.104 80.8436V16.2146M248.476 80.8436H183.844M248.476 80.8436V145.472M248.476 80.8436V16.2146M183.844 80.8436H119.216M183.844 80.8436V145.472M183.844 80.8436V16.2146M119.216 80.8436H54.5864M119.216 80.8436V145.472M119.216 80.8436V16.2146M54.5864 80.8436H0.000366211M54.5864 80.8436V145.472M54.5864 80.8436V16.2146M377.734 274.73H313.104M377.734 274.73H445.82M313.104 274.73H248.476M248.476 274.73H183.844M183.844 274.73H119.217M119.217 274.73H54.5866M54.5866 274.73H0M377.734 145.472H313.104M377.734 145.472H445.82M313.104 145.472H248.476M248.476 145.472H183.844M183.844 145.472H119.216M119.216 145.472H54.5864M54.5864 145.472H0M377.734 16.2146H313.104M377.734 16.2146V0.000380212M377.734 16.2146H445.82M313.104 16.2146H248.476M313.104 16.2146V0.000380212M248.476 16.2146H183.844M248.476 16.2146V0M183.844 16.2146H119.216M183.844 16.2146V0.000380212M119.216 16.2146H54.5864M119.216 16.2146V0M54.5864 16.2146H0.000366211M54.5864 16.2146V0M813.342 460.425H768.967M768.967 460.425H704.337M768.967 460.425V525.054M768.967 460.425V403.988M704.337 460.425H639.709M704.337 460.425V525.054M704.337 460.425V403.988M639.709 460.425H575.077M639.709 460.425L639.709 525.054M639.709 460.425V403.988M575.077 460.425H510.45M575.077 460.425V525.054M575.077 460.425V403.988M510.45 460.425H445.82M510.45 460.425V525.054M510.45 460.425V403.988M445.82 460.425V525.054M445.82 460.425L445.82 403.988M813.342 525.054H768.967M768.967 525.054H704.337M768.967 525.054V589.684M704.337 525.054H639.709M704.337 525.054V589.684M639.709 525.054H575.077M639.709 525.054V589.684M575.077 525.054H510.45M575.077 525.054V589.684M510.45 525.054H445.82M510.45 525.054V589.684M445.82 525.054V589.684M813.342 654.313H768.967M768.967 654.313H704.337M768.967 654.313V718.942M768.967 654.313V589.684M704.337 654.313H639.709M704.337 654.313V718.942M704.337 654.313V589.684M639.709 654.313H575.077M639.709 654.313V718.942M639.709 654.313V589.684M575.077 654.313H510.45M575.077 654.313V718.942M575.077 654.313V589.684M510.45 654.313H445.82M510.45 654.313V718.942M510.45 654.313V589.684M445.82 654.313V718.942M445.82 654.313V589.684M813.342 783.57H768.967M768.967 783.57H704.337M768.967 783.57V848.199M768.967 783.57V718.942M704.337 783.57H639.709M704.337 783.57V848.199M704.337 783.57V718.942M639.709 783.57H575.077M639.709 783.57V848.199M639.709 783.57V718.942M575.077 783.57H510.45M575.077 783.57V848.199M575.077 783.57V718.942M510.45 783.57H445.82M510.45 783.57V848.199M510.45 783.57V718.942M445.82 783.57V848.199M445.82 783.57V718.942M813.342 589.684H768.967M768.967 589.684H704.337M704.337 589.684H639.709M639.709 589.684H575.077M575.077 589.684H510.45M510.45 589.684H445.82M813.342 718.942H768.967M768.967 718.942H704.337M704.337 718.942H639.709M639.709 718.942H575.077M575.077 718.942H510.45M510.45 718.942H445.82M813.342 848.199H768.967M768.967 848.199H704.337M768.967 848.199V864.413M704.337 848.199H639.709M704.337 848.199V864.413M639.709 848.199H575.077M639.709 848.199V864.413M575.077 848.199H510.45M575.077 848.199V864.413M510.45 848.199H445.82M510.45 848.199V864.413M445.82 848.199V864.413M813.342 403.988H768.967M768.967 403.988H704.337M768.967 403.988V339.359M704.337 403.988H639.709M704.337 403.988V339.359M639.709 403.988H575.077M639.709 403.988V339.359M575.077 403.988H510.45M575.077 403.988V339.359M510.45 403.988H445.82M510.45 403.988V339.359M445.82 403.988V339.359M813.341 339.359H768.967M768.967 339.359H704.337M768.967 339.359V274.73M704.337 339.359H639.709M704.337 339.359V274.73M639.709 339.359H575.077M639.709 339.359V274.73M575.077 339.359H510.45M575.077 339.359V274.73M510.45 339.359H445.82M510.45 339.359L510.449 274.73M445.82 339.359V274.73M813.341 210.101H768.967M768.967 210.101H704.337M768.967 210.101V274.73M768.967 210.101V145.472M704.337 210.101H639.709M704.337 210.101V274.73M704.337 210.101V145.472M639.709 210.101H575.077M639.709 210.101V274.73M639.709 210.101V145.472M575.077 210.101H510.449M575.077 210.101V274.73M575.077 210.101V145.472M510.449 210.101H445.82M510.449 210.101V274.73M510.449 210.101V145.472M445.82 210.101V274.73M445.82 210.101V145.472M813.342 80.8436H768.967M768.967 80.8436H704.337M768.967 80.8436V145.472M768.967 80.8436V16.2146M704.337 80.8436H639.709M704.337 80.8436V145.472M704.337 80.8436V16.2146M639.709 80.8436H575.077M639.709 80.8436V145.472M639.709 80.8436L639.709 16.2146M575.077 80.8436H510.449M575.077 80.8436V145.472M575.077 80.8436V16.2146M510.449 80.8436H445.82M510.449 80.8436V145.472M510.449 80.8436V16.2146M445.82 80.8436V145.472M445.82 80.8436V16.2146M813.341 274.73H768.967M768.967 274.73H704.337M704.337 274.73H639.709M639.709 274.73H575.077M575.077 274.73H510.449M510.449 274.73H445.82M813.341 145.472H768.967M768.967 145.472H704.337M704.337 145.472H639.709M639.709 145.472H575.077M575.077 145.472H510.449M510.449 145.472H445.82M813.342 16.2146H768.967M768.967 16.2146H704.337M768.967 16.2146V0.000380212M704.337 16.2146H639.709M704.337 16.2146V0.000380212M639.709 16.2146H575.077M639.709 16.2146V0M575.077 16.2146H510.449M575.077 16.2146V0.000380212M510.449 16.2146H445.82M510.449 16.2146V0M445.82 16.2146V0M1161.59 460.425H1096.96M1161.59 460.425V525.054M1161.59 460.425V403.988M1161.59 460.425H1229.68M1096.96 460.425H1032.34M1096.96 460.425V525.054M1096.96 460.425V403.988M1032.34 460.425H967.705M1032.34 460.425V525.054M1032.34 460.425L1032.34 403.988M967.705 460.425H903.077M967.705 460.425V525.054M967.705 460.425V403.988M903.077 460.425H838.447M903.077 460.425V525.054M903.077 460.425V403.988M838.447 460.425H783.86M838.447 460.425V525.054M838.447 460.425V403.988M1161.59 525.054H1096.96M1161.59 525.054V589.684M1161.59 525.054H1229.68M1096.96 525.054H1032.34M1096.96 525.054V589.684M1032.34 525.054H967.705M1032.34 525.054V589.684M967.705 525.054H903.077M967.705 525.054V589.684M903.077 525.054H838.447M903.077 525.054V589.684M838.447 525.054H783.86M838.447 525.054V589.684M1161.59 654.313H1096.96M1161.59 654.313V718.942M1161.59 654.313V589.684M1161.59 654.313H1229.68M1096.96 654.313H1032.34M1096.96 654.313V718.942M1096.96 654.313V589.684M1032.34 654.313H967.705M1032.34 654.313V718.942M1032.34 654.313V589.684M967.705 654.313H903.077M967.705 654.313V718.942M967.705 654.313V589.684M903.077 654.313H838.447M903.077 654.313V718.942M903.077 654.313L903.077 589.684M838.447 654.313H783.86M838.447 654.313V718.942M838.447 654.313L838.447 589.684M1161.59 783.57H1096.96M1161.59 783.57V848.199M1161.59 783.57V718.942M1161.59 783.57H1229.68M1096.96 783.57H1032.34M1096.96 783.57V848.199M1096.96 783.57V718.942M1032.34 783.57H967.705M1032.34 783.57V848.199M1032.34 783.57V718.942M967.705 783.57H903.077M967.705 783.57V848.199M967.705 783.57V718.942M903.077 783.57H838.447M903.077 783.57V848.199M903.077 783.57V718.942M838.447 783.57H783.86M838.447 783.57V848.199M838.447 783.57V718.942M1161.59 589.684H1096.96M1161.59 589.684H1229.68M1096.96 589.684H1032.34M1032.34 589.684H967.705M967.705 589.684H903.077M903.077 589.684H838.447M838.447 589.684H783.86M1161.59 718.942H1096.96M1161.59 718.942H1229.68M1096.96 718.942H1032.34M1032.34 718.942H967.705M967.705 718.942H903.077M903.077 718.942H838.447M838.447 718.942H783.86M1161.59 848.199H1096.96M1161.59 848.199V864.413M1161.59 848.199H1229.68M1096.96 848.199H1032.34M1096.96 848.199V864.413M1032.34 848.199H967.705M1032.34 848.199V864.413M967.705 848.199H903.077M967.705 848.199V864.413M903.077 848.199H838.447M903.077 848.199V864.413M838.447 848.199H783.86M838.447 848.199V864.413M1161.59 403.988H1096.96M1161.59 403.988V339.359M1161.59 403.988H1229.68M1096.96 403.988H1032.34M1096.96 403.988V339.359M1032.34 403.988H967.705M1032.34 403.988V339.359M967.705 403.988H903.077M967.705 403.988V339.359M903.077 403.988H838.447M903.077 403.988V339.359M838.447 403.988H783.86M838.447 403.988V339.359M1161.59 339.359H1096.96M1161.59 339.359V274.73M1161.59 339.359H1229.68M1096.96 339.359H1032.34M1096.96 339.359V274.73M1032.34 339.359H967.705M1032.34 339.359V274.73M967.705 339.359H903.077M967.705 339.359V274.73M903.077 339.359H838.447M903.077 339.359V274.73M838.447 339.359H783.86M838.447 339.359V274.73M1161.59 210.101H1096.96M1161.59 210.101V274.73M1161.59 210.101V145.472M1161.59 210.101H1229.68M1096.96 210.101H1032.34M1096.96 210.101V274.73M1096.96 210.101V145.472M1032.34 210.101H967.705M1032.34 210.101V274.73M1032.34 210.101V145.472M967.705 210.101H903.076M967.705 210.101V274.73M967.705 210.101V145.472M903.076 210.101H838.447M903.076 210.101L903.077 274.73M903.076 210.101V145.472M838.447 210.101H783.86M838.447 210.101L838.447 274.73M838.447 210.101V145.472M1161.59 80.8436H1096.96M1161.59 80.8436V145.472M1161.59 80.8436V16.2146M1161.59 80.8436H1229.68M1096.96 80.8436H1032.34M1096.96 80.8436V145.472M1096.96 80.8436V16.2146M1032.34 80.8436H967.705M1032.34 80.8436V145.472M1032.34 80.8436V16.2146M967.705 80.8436H903.076M967.705 80.8436V145.472M967.705 80.8436V16.2146M903.076 80.8436H838.447M903.076 80.8436V145.472M903.076 80.8436V16.2146M838.447 80.8436H783.86M838.447 80.8436V145.472M838.447 80.8436V16.2146M1161.59 274.73H1096.96M1161.59 274.73H1229.68M1096.96 274.73H1032.34M1032.34 274.73H967.705M967.705 274.73H903.077M903.077 274.73H838.447M838.447 274.73H783.86M1161.59 145.472H1096.96M1161.59 145.472H1229.68M1096.96 145.472H1032.34M1032.34 145.472H967.705M967.705 145.472H903.076M903.076 145.472H838.447M838.447 145.472H783.86M1161.59 16.2146H1096.96M1161.59 16.2146V0.000380212M1161.59 16.2146H1229.68M1096.96 16.2146H1032.34M1096.96 16.2146V0.000380212M1032.34 16.2146H967.705M1032.34 16.2146V0M967.705 16.2146H903.076M967.705 16.2146V0.000380212M903.076 16.2146H838.447M903.076 16.2146V0M838.447 16.2146H783.86M838.447 16.2146V0M1597.2 460.425H1552.83M1552.83 460.425H1488.2M1552.83 460.425V525.054M1552.83 460.425V403.988M1488.2 460.425H1423.57M1488.2 460.425V525.054M1488.2 460.425V403.988M1423.57 460.425H1358.94M1423.57 460.425V525.054M1423.57 460.425V403.988M1358.94 460.425H1294.31M1358.94 460.425V525.054M1358.94 460.425V403.988M1294.31 460.425H1229.68M1294.31 460.425V525.054M1294.31 460.425V403.988M1229.68 460.425V525.054M1229.68 460.425V403.988M1597.2 525.054H1552.83M1552.83 525.054H1488.2M1552.83 525.054V589.684M1488.2 525.054H1423.57M1488.2 525.054V589.684M1423.57 525.054H1358.94M1423.57 525.054V589.684M1358.94 525.054H1294.31M1358.94 525.054V589.684M1294.31 525.054H1229.68M1294.31 525.054V589.684M1229.68 525.054V589.684M1597.2 654.313H1552.83M1552.83 654.313H1488.2M1552.83 654.313V718.942M1552.83 654.313V589.684M1488.2 654.313H1423.57M1488.2 654.313V718.942M1488.2 654.313V589.684M1423.57 654.313H1358.94M1423.57 654.313V718.942M1423.57 654.313V589.684M1358.94 654.313H1294.31M1358.94 654.313V718.942M1358.94 654.313V589.684M1294.31 654.313H1229.68M1294.31 654.313V718.942M1294.31 654.313V589.684M1229.68 654.313V718.942M1229.68 654.313V589.684M1597.2 783.57H1552.83M1552.83 783.57H1488.2M1552.83 783.57V848.199M1552.83 783.57V718.942M1488.2 783.57H1423.57M1488.2 783.57V848.199M1488.2 783.57V718.942M1423.57 783.57H1358.94M1423.57 783.57V848.199M1423.57 783.57V718.942M1358.94 783.57H1294.31M1358.94 783.57V848.199M1358.94 783.57V718.942M1294.31 783.57H1229.68M1294.31 783.57V848.199M1294.31 783.57V718.942M1229.68 783.57V848.199M1229.68 783.57L1229.68 718.942M1597.2 589.684H1552.83M1552.83 589.684H1488.2M1488.2 589.684H1423.57M1423.57 589.684H1358.94M1358.94 589.684H1294.31M1294.31 589.684H1229.68M1597.2 718.942H1552.83M1552.83 718.942H1488.2M1488.2 718.942H1423.57M1423.57 718.942H1358.94M1358.94 718.942H1294.31M1294.31 718.942H1229.68M1597.2 848.199H1552.83M1552.83 848.199H1488.2M1552.83 848.199V864.413M1488.2 848.199H1423.57M1488.2 848.199V864.413M1423.57 848.199H1358.94M1423.57 848.199V864.413M1358.94 848.199H1294.31M1358.94 848.199V864.413M1294.31 848.199H1229.68M1294.31 848.199V864.413M1229.68 848.199V864.413M1597.2 403.988H1552.83M1552.83 403.988H1488.2M1552.83 403.988V339.359M1488.2 403.988H1423.57M1488.2 403.988V339.359M1423.57 403.988H1358.94M1423.57 403.988V339.359M1358.94 403.988H1294.31M1358.94 403.988V339.359M1294.31 403.988H1229.68M1294.31 403.988V339.359M1229.68 403.988V339.359M1597.2 339.359H1552.83M1552.83 339.359H1488.2M1552.83 339.359V274.73M1488.2 339.359H1423.57M1488.2 339.359V274.73M1423.57 339.359H1358.94M1423.57 339.359V274.73M1358.94 339.359H1294.31M1358.94 339.359V274.73M1294.31 339.359H1229.68M1294.31 339.359V274.73M1229.68 339.359V274.73M1597.2 210.101H1552.83M1552.83 210.101H1488.2M1552.83 210.101V274.73M1552.83 210.101V145.472M1488.2 210.101H1423.57M1488.2 210.101V274.73M1488.2 210.101V145.472M1423.57 210.101H1358.94M1423.57 210.101V274.73M1423.57 210.101V145.472M1358.94 210.101H1294.31M1358.94 210.101V274.73M1358.94 210.101V145.472M1294.31 210.101H1229.68M1294.31 210.101V274.73M1294.31 210.101V145.472M1229.68 210.101V274.73M1229.68 210.101V145.472M1597.2 80.8436H1552.83M1552.83 80.8436H1488.2M1552.83 80.8436V145.472M1552.83 80.8436V16.2146M1488.2 80.8436H1423.57M1488.2 80.8436V145.472M1488.2 80.8436V16.2146M1423.57 80.8436H1358.94M1423.57 80.8436V145.472M1423.57 80.8436L1423.57 16.2146M1358.94 80.8436H1294.31M1358.94 80.8436V145.472M1358.94 80.8436V16.2146M1294.31 80.8436H1229.68M1294.31 80.8436L1294.31 145.472M1294.31 80.8436V16.2146M1229.68 80.8436L1229.68 145.472M1229.68 80.8436V16.2146M1597.2 274.73H1552.83M1552.83 274.73H1488.2M1488.2 274.73H1423.57M1423.57 274.73H1358.94M1358.94 274.73H1294.31M1294.31 274.73H1229.68M1597.2 145.472H1552.83M1552.83 145.472H1488.2M1488.2 145.472H1423.57M1423.57 145.472H1358.94M1358.94 145.472H1294.31M1294.31 145.472H1229.68M1597.2 16.2146H1552.83M1552.83 16.2146H1488.2M1552.83 16.2146V0.000380212M1488.2 16.2146H1423.57M1488.2 16.2146V0.000380212M1423.57 16.2146H1358.94M1423.57 16.2146V0M1358.94 16.2146H1294.31M1358.94 16.2146V0.000380212M1294.31 16.2146H1229.68M1294.31 16.2146V0M1229.68 16.2146V0M377.734 1292.62H313.104M377.734 1292.62V1357.25M377.734 1292.62V1236.19M377.734 1292.62H445.82M313.104 1292.62H248.476M313.104 1292.62V1357.25M313.104 1292.62V1236.19M248.476 1292.62H183.844M248.476 1292.62V1357.25M248.476 1292.62V1236.19M183.844 1292.62H119.217M183.844 1292.62V1357.25M183.844 1292.62V1236.19M119.217 1292.62H54.5866M119.217 1292.62V1357.25M119.217 1292.62V1236.19M54.5866 1292.62H0.000366211M54.5866 1292.62V1357.25M54.5866 1292.62V1236.19M377.734 1357.25H313.104M377.734 1357.25V1421.88M377.734 1357.25H445.82M313.104 1357.25H248.476M313.104 1357.25V1421.88M248.476 1357.25H183.844M248.476 1357.25V1421.88M183.844 1357.25H119.217M183.844 1357.25V1421.88M119.217 1357.25H54.5866M119.217 1357.25V1421.88M54.5866 1357.25H0.000366211M54.5866 1357.25V1421.88M377.734 1486.51H313.104M377.734 1486.51V1551.14M377.734 1486.51V1421.88M377.734 1486.51H445.82M313.104 1486.51H248.476M313.104 1486.51V1551.14M313.104 1486.51V1421.88M248.476 1486.51H183.844M248.476 1486.51V1551.14M248.476 1486.51V1421.88M183.844 1486.51H119.217M183.844 1486.51V1551.14M183.844 1486.51V1421.88M119.217 1486.51H54.5866M119.217 1486.51V1551.14M119.217 1486.51V1421.88M54.5866 1486.51H0.000366211M54.5866 1486.51V1551.14M54.5866 1486.51V1421.88M377.734 1615.77H313.104M377.734 1615.77V1680.4M377.734 1615.77V1551.14M377.734 1615.77H445.82M313.104 1615.77H248.476M313.104 1615.77V1680.4M313.104 1615.77V1551.14M248.476 1615.77H183.844M248.476 1615.77V1680.4M248.476 1615.77V1551.14M183.844 1615.77H119.217M183.844 1615.77V1680.4M183.844 1615.77V1551.14M119.217 1615.77H54.5866M119.217 1615.77V1680.4M119.217 1615.77V1551.14M54.5866 1615.77H0.000366211M54.5866 1615.77V1680.4M54.5866 1615.77V1551.14M377.734 1421.88H313.104M377.734 1421.88H445.82M313.104 1421.88H248.476M248.476 1421.88H183.844M183.844 1421.88H119.217M119.217 1421.88H54.5866M54.5866 1421.88H0.000366211M377.734 1551.14H313.104M377.734 1551.14H445.82M313.104 1551.14H248.476M248.476 1551.14H183.844M183.844 1551.14H119.217M119.217 1551.14H54.5866M54.5866 1551.14H0.000366211M377.734 1680.4H313.104M377.734 1680.4V1696.61M377.734 1680.4H445.82M313.104 1680.4H248.476M313.104 1680.4V1696.61M248.476 1680.4H183.844M248.476 1680.4V1696.61M183.844 1680.4H119.217M183.844 1680.4V1696.61M119.217 1680.4H54.5866M119.217 1680.4V1696.61M54.5866 1680.4H0.000366211M54.5866 1680.4V1696.61M377.734 1236.19H313.104M377.734 1236.19V1171.56M377.734 1236.19H445.82M313.104 1236.19H248.476M313.104 1236.19V1171.56M248.476 1236.19H183.844M248.476 1236.19V1171.56M183.844 1236.19H119.217M183.844 1236.19V1171.56M119.217 1236.19H54.5866M119.217 1236.19V1171.56M54.5866 1236.19H0.000366211M54.5866 1236.19V1171.56M377.734 1171.56H313.104M377.734 1171.56V1106.93M377.734 1171.56H445.82M313.104 1171.56H248.476M313.104 1171.56V1106.93M248.476 1171.56H183.844M248.476 1171.56V1106.93M183.844 1171.56H119.217M183.844 1171.56V1106.93M119.217 1171.56H54.5866M119.217 1171.56V1106.93M54.5866 1171.56H0M54.5866 1171.56V1106.93M377.734 1042.3H313.104M377.734 1042.3V1106.93M377.734 1042.3V977.671M377.734 1042.3H445.82M313.104 1042.3H248.476M313.104 1042.3V1106.93M313.104 1042.3V977.671M248.476 1042.3H183.844M248.476 1042.3V1106.93M248.476 1042.3V977.671M183.844 1042.3H119.216M183.844 1042.3V1106.93M183.844 1042.3V977.671M119.216 1042.3H54.5864M119.216 1042.3L119.217 1106.93M119.216 1042.3V977.671M54.5864 1042.3H0M54.5864 1042.3L54.5866 1106.93M54.5864 1042.3V977.671M377.734 913.042H313.104M377.734 913.042V977.671M377.734 913.042V848.413M377.734 913.042H445.82M313.104 913.042H248.476M313.104 913.042V977.671M313.104 913.042V848.413M248.476 913.042H183.844M248.476 913.042V977.671M248.476 913.042V848.413M183.844 913.042H119.216M183.844 913.042V977.671M183.844 913.042V848.413M119.216 913.042H54.5864M119.216 913.042V977.671M119.216 913.042V848.413M54.5864 913.042H0.000366211M54.5864 913.042V977.671M54.5864 913.042V848.413M377.734 1106.93H313.104M377.734 1106.93H445.82M313.104 1106.93H248.476M248.476 1106.93H183.844M183.844 1106.93H119.217M119.217 1106.93H54.5866M54.5866 1106.93H0M377.734 977.671H313.104M377.734 977.671H445.82M313.104 977.671H248.476M248.476 977.671H183.844M183.844 977.671H119.216M119.216 977.671H54.5864M54.5864 977.671H0M377.734 848.413H313.104M377.734 848.413V832.199M377.734 848.413H445.82M313.104 848.413H248.476M313.104 848.413V832.199M248.476 848.413H183.844M248.476 848.413V832.199M183.844 848.413H119.216M183.844 848.413V832.199M119.216 848.413H54.5864M119.216 848.413V832.199M54.5864 848.413H0.000366211M54.5864 848.413V832.199M813.342 1292.62H768.967M768.967 1292.62H704.337M768.967 1292.62V1357.25M768.967 1292.62V1236.19M704.337 1292.62H639.709M704.337 1292.62V1357.25M704.337 1292.62V1236.19M639.709 1292.62H575.077M639.709 1292.62L639.709 1357.25M639.709 1292.62V1236.19M575.077 1292.62H510.45M575.077 1292.62V1357.25M575.077 1292.62V1236.19M510.45 1292.62H445.82M510.45 1292.62V1357.25M510.45 1292.62V1236.19M445.82 1292.62V1357.25M445.82 1292.62L445.82 1236.19M813.342 1357.25H768.967M768.967 1357.25H704.337M768.967 1357.25V1421.88M704.337 1357.25H639.709M704.337 1357.25V1421.88M639.709 1357.25H575.077M639.709 1357.25V1421.88M575.077 1357.25H510.45M575.077 1357.25V1421.88M510.45 1357.25H445.82M510.45 1357.25V1421.88M445.82 1357.25V1421.88M813.342 1486.51H768.967M768.967 1486.51H704.337M768.967 1486.51V1551.14M768.967 1486.51V1421.88M704.337 1486.51H639.709M704.337 1486.51V1551.14M704.337 1486.51V1421.88M639.709 1486.51H575.077M639.709 1486.51V1551.14M639.709 1486.51V1421.88M575.077 1486.51H510.45M575.077 1486.51V1551.14M575.077 1486.51V1421.88M510.45 1486.51H445.82M510.45 1486.51V1551.14M510.45 1486.51V1421.88M445.82 1486.51V1551.14M445.82 1486.51V1421.88M813.342 1615.77H768.967M768.967 1615.77H704.337M768.967 1615.77V1680.4M768.967 1615.77V1551.14M704.337 1615.77H639.709M704.337 1615.77V1680.4M704.337 1615.77V1551.14M639.709 1615.77H575.077M639.709 1615.77V1680.4M639.709 1615.77V1551.14M575.077 1615.77H510.45M575.077 1615.77V1680.4M575.077 1615.77V1551.14M510.45 1615.77H445.82M510.45 1615.77V1680.4M510.45 1615.77V1551.14M445.82 1615.77V1680.4M445.82 1615.77V1551.14M813.342 1421.88H768.967M768.967 1421.88H704.337M704.337 1421.88H639.709M639.709 1421.88H575.077M575.077 1421.88H510.45M510.45 1421.88H445.82M813.342 1551.14H768.967M768.967 1551.14H704.337M704.337 1551.14H639.709M639.709 1551.14H575.077M575.077 1551.14H510.45M510.45 1551.14H445.82M813.342 1680.4H768.967M768.967 1680.4H704.337M768.967 1680.4V1696.61M704.337 1680.4H639.709M704.337 1680.4V1696.61M639.709 1680.4H575.077M639.709 1680.4V1696.61M575.077 1680.4H510.45M575.077 1680.4V1696.61M510.45 1680.4H445.82M510.45 1680.4V1696.61M445.82 1680.4V1696.61M813.342 1236.19H768.967M768.967 1236.19H704.337M768.967 1236.19V1171.56M704.337 1236.19H639.709M704.337 1236.19V1171.56M639.709 1236.19H575.077M639.709 1236.19V1171.56M575.077 1236.19H510.45M575.077 1236.19V1171.56M510.45 1236.19H445.82M510.45 1236.19V1171.56M445.82 1236.19V1171.56M813.341 1171.56H768.967M768.967 1171.56H704.337M768.967 1171.56V1106.93M704.337 1171.56H639.709M704.337 1171.56V1106.93M639.709 1171.56H575.077M639.709 1171.56V1106.93M575.077 1171.56H510.45M575.077 1171.56V1106.93M510.45 1171.56H445.82M510.45 1171.56L510.449 1106.93M445.82 1171.56V1106.93M813.341 1042.3H768.967M768.967 1042.3H704.337M768.967 1042.3V1106.93M768.967 1042.3V977.671M704.337 1042.3H639.709M704.337 1042.3V1106.93M704.337 1042.3V977.671M639.709 1042.3H575.077M639.709 1042.3V1106.93M639.709 1042.3V977.671M575.077 1042.3H510.449M575.077 1042.3V1106.93M575.077 1042.3V977.671M510.449 1042.3H445.82M510.449 1042.3V1106.93M510.449 1042.3V977.671M445.82 1042.3V1106.93M445.82 1042.3V977.671M813.342 913.042H768.967M768.967 913.042H704.337M768.967 913.042V977.671M768.967 913.042V848.413M704.337 913.042H639.709M704.337 913.042V977.671M704.337 913.042V848.413M639.709 913.042H575.077M639.709 913.042V977.671M639.709 913.042L639.709 848.413M575.077 913.042H510.449M575.077 913.042V977.671M575.077 913.042V848.413M510.449 913.042H445.82M510.449 913.042V977.671M510.449 913.042V848.413M445.82 913.042V977.671M445.82 913.042V848.413M813.341 1106.93H768.967M768.967 1106.93H704.337M704.337 1106.93H639.709M639.709 1106.93H575.077M575.077 1106.93H510.449M510.449 1106.93H445.82M813.341 977.671H768.967M768.967 977.671H704.337M704.337 977.671H639.709M639.709 977.671H575.077M575.077 977.671H510.449M510.449 977.671H445.82M813.342 848.413H768.967M768.967 848.413H704.337M768.967 848.413V832.199M704.337 848.413H639.709M704.337 848.413V832.199M639.709 848.413H575.077M639.709 848.413V832.199M575.077 848.413H510.449M575.077 848.413V832.199M510.449 848.413H445.82M510.449 848.413V832.199M445.82 848.413V832.199M1161.59 1292.62H1096.96M1161.59 1292.62V1357.25M1161.59 1292.62V1236.19M1161.59 1292.62H1229.68M1096.96 1292.62H1032.34M1096.96 1292.62V1357.25M1096.96 1292.62V1236.19M1032.34 1292.62H967.705M1032.34 1292.62V1357.25M1032.34 1292.62L1032.34 1236.19M967.705 1292.62H903.077M967.705 1292.62V1357.25M967.705 1292.62V1236.19M903.077 1292.62H838.447M903.077 1292.62V1357.25M903.077 1292.62V1236.19M838.447 1292.62H783.86M838.447 1292.62V1357.25M838.447 1292.62V1236.19M1161.59 1357.25H1096.96M1161.59 1357.25V1421.88M1161.59 1357.25H1229.68M1096.96 1357.25H1032.34M1096.96 1357.25V1421.88M1032.34 1357.25H967.705M1032.34 1357.25V1421.88M967.705 1357.25H903.077M967.705 1357.25V1421.88M903.077 1357.25H838.447M903.077 1357.25V1421.88M838.447 1357.25H783.86M838.447 1357.25V1421.88M1161.59 1486.51H1096.96M1161.59 1486.51V1551.14M1161.59 1486.51V1421.88M1161.59 1486.51H1229.68M1096.96 1486.51H1032.34M1096.96 1486.51V1551.14M1096.96 1486.51V1421.88M1032.34 1486.51H967.705M1032.34 1486.51V1551.14M1032.34 1486.51V1421.88M967.705 1486.51H903.077M967.705 1486.51V1551.14M967.705 1486.51V1421.88M903.077 1486.51H838.447M903.077 1486.51V1551.14M903.077 1486.51L903.077 1421.88M838.447 1486.51H783.86M838.447 1486.51V1551.14M838.447 1486.51L838.447 1421.88M1161.59 1615.77H1096.96M1161.59 1615.77V1680.4M1161.59 1615.77V1551.14M1161.59 1615.77H1229.68M1096.96 1615.77H1032.34M1096.96 1615.77V1680.4M1096.96 1615.77V1551.14M1032.34 1615.77H967.705M1032.34 1615.77V1680.4M1032.34 1615.77V1551.14M967.705 1615.77H903.077M967.705 1615.77V1680.4M967.705 1615.77V1551.14M903.077 1615.77H838.447M903.077 1615.77V1680.4M903.077 1615.77V1551.14M838.447 1615.77H783.86M838.447 1615.77V1680.4M838.447 1615.77V1551.14M1161.59 1421.88H1096.96M1161.59 1421.88H1229.68M1096.96 1421.88H1032.34M1032.34 1421.88H967.705M967.705 1421.88H903.077M903.077 1421.88H838.447M838.447 1421.88H783.86M1161.59 1551.14H1096.96M1161.59 1551.14H1229.68M1096.96 1551.14H1032.34M1032.34 1551.14H967.705M967.705 1551.14H903.077M903.077 1551.14H838.447M838.447 1551.14H783.86M1161.59 1680.4H1096.96M1161.59 1680.4V1696.61M1161.59 1680.4H1229.68M1096.96 1680.4H1032.34M1096.96 1680.4V1696.61M1032.34 1680.4H967.705M1032.34 1680.4V1696.61M967.705 1680.4H903.077M967.705 1680.4V1696.61M903.077 1680.4H838.447M903.077 1680.4V1696.61M838.447 1680.4H783.86M838.447 1680.4V1696.61M1161.59 1236.19H1096.96M1161.59 1236.19V1171.56M1161.59 1236.19H1229.68M1096.96 1236.19H1032.34M1096.96 1236.19V1171.56M1032.34 1236.19H967.705M1032.34 1236.19V1171.56M967.705 1236.19H903.077M967.705 1236.19V1171.56M903.077 1236.19H838.447M903.077 1236.19V1171.56M838.447 1236.19H783.86M838.447 1236.19V1171.56M1161.59 1171.56H1096.96M1161.59 1171.56V1106.93M1161.59 1171.56H1229.68M1096.96 1171.56H1032.34M1096.96 1171.56V1106.93M1032.34 1171.56H967.705M1032.34 1171.56V1106.93M967.705 1171.56H903.077M967.705 1171.56V1106.93M903.077 1171.56H838.447M903.077 1171.56V1106.93M838.447 1171.56H783.86M838.447 1171.56V1106.93M1161.59 1042.3H1096.96M1161.59 1042.3V1106.93M1161.59 1042.3V977.671M1161.59 1042.3H1229.68M1096.96 1042.3H1032.34M1096.96 1042.3V1106.93M1096.96 1042.3V977.671M1032.34 1042.3H967.705M1032.34 1042.3V1106.93M1032.34 1042.3V977.671M967.705 1042.3H903.076M967.705 1042.3V1106.93M967.705 1042.3V977.671M903.076 1042.3H838.447M903.076 1042.3L903.077 1106.93M903.076 1042.3V977.671M838.447 1042.3H783.86M838.447 1042.3L838.447 1106.93M838.447 1042.3V977.671M1161.59 913.042H1096.96M1161.59 913.042V977.671M1161.59 913.042V848.413M1161.59 913.042H1229.68M1096.96 913.042H1032.34M1096.96 913.042V977.671M1096.96 913.042V848.413M1032.34 913.042H967.705M1032.34 913.042V977.671M1032.34 913.042V848.413M967.705 913.042H903.076M967.705 913.042V977.671M967.705 913.042V848.413M903.076 913.042H838.447M903.076 913.042V977.671M903.076 913.042V848.413M838.447 913.042H783.86M838.447 913.042V977.671M838.447 913.042V848.413M1161.59 1106.93H1096.96M1161.59 1106.93H1229.68M1096.96 1106.93H1032.34M1032.34 1106.93H967.705M967.705 1106.93H903.077M903.077 1106.93H838.447M838.447 1106.93H783.86M1161.59 977.671H1096.96M1161.59 977.671H1229.68M1096.96 977.671H1032.34M1032.34 977.671H967.705M967.705 977.671H903.076M903.076 977.671H838.447M838.447 977.671H783.86M1161.59 848.413H1096.96M1161.59 848.413V832.199M1161.59 848.413H1229.68M1096.96 848.413H1032.34M1096.96 848.413V832.199M1032.34 848.413H967.705M1032.34 848.413V832.199M967.705 848.413H903.076M967.705 848.413V832.199M903.076 848.413H838.447M903.076 848.413V832.199M838.447 848.413H783.86M838.447 848.413V832.199M1597.2 1292.62H1552.83M1552.83 1292.62H1488.2M1552.83 1292.62V1357.25M1552.83 1292.62V1236.19M1488.2 1292.62H1423.57M1488.2 1292.62V1357.25M1488.2 1292.62V1236.19M1423.57 1292.62H1358.94M1423.57 1292.62V1357.25M1423.57 1292.62V1236.19M1358.94 1292.62H1294.31M1358.94 1292.62V1357.25M1358.94 1292.62V1236.19M1294.31 1292.62H1229.68M1294.31 1292.62V1357.25M1294.31 1292.62V1236.19M1229.68 1292.62V1357.25M1229.68 1292.62V1236.19M1597.2 1357.25H1552.83M1552.83 1357.25H1488.2M1552.83 1357.25V1421.88M1488.2 1357.25H1423.57M1488.2 1357.25V1421.88M1423.57 1357.25H1358.94M1423.57 1357.25V1421.88M1358.94 1357.25H1294.31M1358.94 1357.25V1421.88M1294.31 1357.25H1229.68M1294.31 1357.25V1421.88M1229.68 1357.25V1421.88M1597.2 1486.51H1552.83M1552.83 1486.51H1488.2M1552.83 1486.51V1551.14M1552.83 1486.51V1421.88M1488.2 1486.51H1423.57M1488.2 1486.51V1551.14M1488.2 1486.51V1421.88M1423.57 1486.51H1358.94M1423.57 1486.51V1551.14M1423.57 1486.51V1421.88M1358.94 1486.51H1294.31M1358.94 1486.51V1551.14M1358.94 1486.51V1421.88M1294.31 1486.51H1229.68M1294.31 1486.51V1551.14M1294.31 1486.51V1421.88M1229.68 1486.51V1551.14M1229.68 1486.51V1421.88M1597.2 1615.77H1552.83M1552.83 1615.77H1488.2M1552.83 1615.77V1680.4M1552.83 1615.77V1551.14M1488.2 1615.77H1423.57M1488.2 1615.77V1680.4M1488.2 1615.77V1551.14M1423.57 1615.77H1358.94M1423.57 1615.77V1680.4M1423.57 1615.77V1551.14M1358.94 1615.77H1294.31M1358.94 1615.77V1680.4M1358.94 1615.77V1551.14M1294.31 1615.77H1229.68M1294.31 1615.77V1680.4M1294.31 1615.77V1551.14M1229.68 1615.77V1680.4M1229.68 1615.77L1229.68 1551.14M1597.2 1421.88H1552.83M1552.83 1421.88H1488.2M1488.2 1421.88H1423.57M1423.57 1421.88H1358.94M1358.94 1421.88H1294.31M1294.31 1421.88H1229.68M1597.2 1551.14H1552.83M1552.83 1551.14H1488.2M1488.2 1551.14H1423.57M1423.57 1551.14H1358.94M1358.94 1551.14H1294.31M1294.31 1551.14H1229.68M1597.2 1680.4H1552.83M1552.83 1680.4H1488.2M1552.83 1680.4V1696.61M1488.2 1680.4H1423.57M1488.2 1680.4V1696.61M1423.57 1680.4H1358.94M1423.57 1680.4V1696.61M1358.94 1680.4H1294.31M1358.94 1680.4V1696.61M1294.31 1680.4H1229.68M1294.31 1680.4V1696.61M1229.68 1680.4V1696.61M1597.2 1236.19H1552.83M1552.83 1236.19H1488.2M1552.83 1236.19V1171.56M1488.2 1236.19H1423.57M1488.2 1236.19V1171.56M1423.57 1236.19H1358.94M1423.57 1236.19V1171.56M1358.94 1236.19H1294.31M1358.94 1236.19V1171.56M1294.31 1236.19H1229.68M1294.31 1236.19V1171.56M1229.68 1236.19V1171.56M1597.2 1171.56H1552.83M1552.83 1171.56H1488.2M1552.83 1171.56V1106.93M1488.2 1171.56H1423.57M1488.2 1171.56V1106.93M1423.57 1171.56H1358.94M1423.57 1171.56V1106.93M1358.94 1171.56H1294.31M1358.94 1171.56V1106.93M1294.31 1171.56H1229.68M1294.31 1171.56V1106.93M1229.68 1171.56V1106.93M1597.2 1042.3H1552.83M1552.83 1042.3H1488.2M1552.83 1042.3V1106.93M1552.83 1042.3V977.671M1488.2 1042.3H1423.57M1488.2 1042.3V1106.93M1488.2 1042.3V977.671M1423.57 1042.3H1358.94M1423.57 1042.3V1106.93M1423.57 1042.3V977.671M1358.94 1042.3H1294.31M1358.94 1042.3V1106.93M1358.94 1042.3V977.671M1294.31 1042.3H1229.68M1294.31 1042.3V1106.93M1294.31 1042.3V977.671M1229.68 1042.3V1106.93M1229.68 1042.3V977.671M1597.2 913.042H1552.83M1552.83 913.042H1488.2M1552.83 913.042V977.671M1552.83 913.042V848.413M1488.2 913.042H1423.57M1488.2 913.042V977.671M1488.2 913.042V848.413M1423.57 913.042H1358.94M1423.57 913.042V977.671M1423.57 913.042L1423.57 848.413M1358.94 913.042H1294.31M1358.94 913.042V977.671M1358.94 913.042V848.413M1294.31 913.042H1229.68M1294.31 913.042L1294.31 977.671M1294.31 913.042V848.413M1229.68 913.042L1229.68 977.671M1229.68 913.042V848.413M1597.2 1106.93H1552.83M1552.83 1106.93H1488.2M1488.2 1106.93H1423.57M1423.57 1106.93H1358.94M1358.94 1106.93H1294.31M1294.31 1106.93H1229.68M1597.2 977.671H1552.83M1552.83 977.671H1488.2M1488.2 977.671H1423.57M1423.57 977.671H1358.94M1358.94 977.671H1294.31M1294.31 977.671H1229.68M1597.2 848.413H1552.83M1552.83 848.413H1488.2M1552.83 848.413V832.199M1488.2 848.413H1423.57M1488.2 848.413V832.199M1423.57 848.413H1358.94M1423.57 848.413V832.199M1358.94 848.413H1294.31M1358.94 848.413V832.199M1294.31 848.413H1229.68M1294.31 848.413V832.199M1229.68 848.413V832.199M1875.94 460.425H1811.31M1875.94 460.425V525.054M1875.94 460.425V403.988M1875.94 460.425H1944.02M1811.31 460.425H1746.68M1811.31 460.425V525.054M1811.31 460.425V403.988M1746.68 460.425H1682.05M1746.68 460.425V525.054M1746.68 460.425V403.988M1682.05 460.425H1617.42M1682.05 460.425V525.054M1682.05 460.425V403.988M1617.42 460.425H1552.79M1617.42 460.425V525.054M1617.42 460.425V403.988M1552.79 460.425H1498.2M1552.79 460.425V525.054M1552.79 460.425V403.988M1875.94 525.054H1811.31M1875.94 525.054V589.684M1875.94 525.054H1944.02M1811.31 525.054H1746.68M1811.31 525.054V589.684M1746.68 525.054H1682.05M1746.68 525.054V589.684M1682.05 525.054H1617.42M1682.05 525.054V589.684M1617.42 525.054H1552.79M1617.42 525.054V589.684M1552.79 525.054H1498.2M1552.79 525.054V589.684M1875.94 654.313H1811.31M1875.94 654.313V718.942M1875.94 654.313V589.684M1875.94 654.313H1944.02M1811.31 654.313H1746.68M1811.31 654.313V718.942M1811.31 654.313V589.684M1746.68 654.313H1682.05M1746.68 654.313V718.942M1746.68 654.313V589.684M1682.05 654.313H1617.42M1682.05 654.313V718.942M1682.05 654.313V589.684M1617.42 654.313H1552.79M1617.42 654.313V718.942M1617.42 654.313V589.684M1552.79 654.313H1498.2M1552.79 654.313V718.942M1552.79 654.313V589.684M1875.94 783.57H1811.31M1875.94 783.57V848.199M1875.94 783.57V718.942M1875.94 783.57H1944.02M1811.31 783.57H1746.68M1811.31 783.57V848.199M1811.31 783.57V718.942M1746.68 783.57H1682.05M1746.68 783.57V848.199M1746.68 783.57V718.942M1682.05 783.57H1617.42M1682.05 783.57V848.199M1682.05 783.57V718.942M1617.42 783.57H1552.79M1617.42 783.57V848.199M1617.42 783.57V718.942M1552.79 783.57H1498.2M1552.79 783.57V848.199M1552.79 783.57V718.942M1875.94 589.684H1811.31M1875.94 589.684H1944.02M1811.31 589.684H1746.68M1746.68 589.684H1682.05M1682.05 589.684H1617.42M1617.42 589.684H1552.79M1552.79 589.684H1498.2M1875.94 718.942H1811.31M1875.94 718.942H1944.02M1811.31 718.942H1746.68M1746.68 718.942H1682.05M1682.05 718.942H1617.42M1617.42 718.942H1552.79M1552.79 718.942H1498.2M1875.94 848.199H1811.31M1875.94 848.199V864.413M1875.94 848.199H1944.02M1811.31 848.199H1746.68M1811.31 848.199V864.413M1746.68 848.199H1682.05M1746.68 848.199V864.413M1682.05 848.199H1617.42M1682.05 848.199V864.413M1617.42 848.199H1552.79M1617.42 848.199V864.413M1552.79 848.199H1498.2M1552.79 848.199V864.413M1875.94 403.988H1811.31M1875.94 403.988V339.359M1875.94 403.988H1944.02M1811.31 403.988H1746.68M1811.31 403.988V339.359M1746.68 403.988H1682.05M1746.68 403.988V339.359M1682.05 403.988H1617.42M1682.05 403.988V339.359M1617.42 403.988H1552.79M1617.42 403.988V339.359M1552.79 403.988H1498.2M1552.79 403.988V339.359M1875.94 339.359H1811.31M1875.94 339.359V274.73M1875.94 339.359H1944.02M1811.31 339.359H1746.68M1811.31 339.359V274.73M1746.68 339.359H1682.05M1746.68 339.359V274.73M1682.05 339.359H1617.42M1682.05 339.359V274.73M1617.42 339.359H1552.79M1617.42 339.359V274.73M1552.79 339.359H1498.2M1552.79 339.359V274.73M1875.94 210.101H1811.31M1875.94 210.101V274.73M1875.94 210.101V145.472M1875.94 210.101H1944.02M1811.31 210.101H1746.68M1811.31 210.101V274.73M1811.31 210.101V145.472M1746.68 210.101H1682.05M1746.68 210.101V274.73M1746.68 210.101V145.472M1682.05 210.101H1617.42M1682.05 210.101V274.73M1682.05 210.101V145.472M1617.42 210.101H1552.79M1617.42 210.101L1617.42 274.73M1617.42 210.101V145.472M1552.79 210.101H1498.2M1552.79 210.101L1552.79 274.73M1552.79 210.101V145.472M1875.94 80.8436H1811.31M1875.94 80.8436V145.472M1875.94 80.8436V16.2146M1875.94 80.8436H1944.02M1811.31 80.8436H1746.68M1811.31 80.8436V145.472M1811.31 80.8436V16.2146M1746.68 80.8436H1682.05M1746.68 80.8436V145.472M1746.68 80.8436V16.2146M1682.05 80.8436H1617.42M1682.05 80.8436V145.472M1682.05 80.8436V16.2146M1617.42 80.8436H1552.79M1617.42 80.8436V145.472M1617.42 80.8436V16.2146M1552.79 80.8436H1498.2M1552.79 80.8436V145.472M1552.79 80.8436V16.2146M1875.94 274.73H1811.31M1875.94 274.73H1944.02M1811.31 274.73H1746.68M1746.68 274.73H1682.05M1682.05 274.73H1617.42M1617.42 274.73H1552.79M1552.79 274.73H1498.2M1875.94 145.472H1811.31M1875.94 145.472H1944.02M1811.31 145.472H1746.68M1746.68 145.472H1682.05M1682.05 145.472H1617.42M1617.42 145.472H1552.79M1552.79 145.472H1498.2M1875.94 16.2146H1811.31M1875.94 16.2146V0.000380212M1875.94 16.2146H1944.02M1811.31 16.2146H1746.68M1811.31 16.2146V0.000380212M1746.68 16.2146H1682.05M1746.68 16.2146V0M1682.05 16.2146H1617.42M1682.05 16.2146V0.000380212M1617.42 16.2146H1552.79M1617.42 16.2146V0M1552.79 16.2146H1498.2M1552.79 16.2146V0M2311.54 460.425H2267.17M2267.17 460.425H2202.54M2267.17 460.425V525.054M2267.17 460.425V403.988M2202.54 460.425H2137.91M2202.54 460.425V525.054M2202.54 460.425V403.988M2137.91 460.425H2073.28M2137.91 460.425V525.054M2137.91 460.425V403.988M2073.28 460.425H2008.65M2073.28 460.425V525.054M2073.28 460.425V403.988M2008.65 460.425H1944.02M2008.65 460.425V525.054M2008.65 460.425V403.988M1944.02 460.425V525.054M1944.02 460.425L1944.02 403.988M2311.54 525.054H2267.17M2267.17 525.054H2202.54M2267.17 525.054V589.684M2202.54 525.054H2137.91M2202.54 525.054V589.684M2137.91 525.054H2073.28M2137.91 525.054V589.684M2073.28 525.054H2008.65M2073.28 525.054V589.684M2008.65 525.054H1944.02M2008.65 525.054V589.684M1944.02 525.054V589.684M2311.54 654.313H2267.17M2267.17 654.313H2202.54M2267.17 654.313V718.942M2267.17 654.313V589.684M2202.54 654.313H2137.91M2202.54 654.313V718.942M2202.54 654.313V589.684M2137.91 654.313H2073.28M2137.91 654.313V718.942M2137.91 654.313V589.684M2073.28 654.313H2008.65M2073.28 654.313V718.942M2073.28 654.313V589.684M2008.65 654.313H1944.02M2008.65 654.313V718.942M2008.65 654.313V589.684M1944.02 654.313V718.942M1944.02 654.313V589.684M2311.54 783.57H2267.17M2267.17 783.57H2202.54M2267.17 783.57V848.199M2267.17 783.57V718.942M2202.54 783.57H2137.91M2202.54 783.57V848.199M2202.54 783.57V718.942M2137.91 783.57H2073.28M2137.91 783.57V848.199M2137.91 783.57V718.942M2073.28 783.57H2008.65M2073.28 783.57V848.199M2073.28 783.57V718.942M2008.65 783.57H1944.02M2008.65 783.57V848.199M2008.65 783.57V718.942M1944.02 783.57V848.199M1944.02 783.57V718.942M2311.54 589.684H2267.17M2267.17 589.684H2202.54M2202.54 589.684H2137.91M2137.91 589.684H2073.28M2073.28 589.684H2008.65M2008.65 589.684H1944.02M2311.54 718.942H2267.17M2267.17 718.942H2202.54M2202.54 718.942H2137.91M2137.91 718.942H2073.28M2073.28 718.942H2008.65M2008.65 718.942H1944.02M2311.54 848.199H2267.17M2267.17 848.199H2202.54M2267.17 848.199V864.413M2202.54 848.199H2137.91M2202.54 848.199V864.413M2137.91 848.199H2073.28M2137.91 848.199V864.413M2073.28 848.199H2008.65M2073.28 848.199V864.413M2008.65 848.199H1944.02M2008.65 848.199V864.413M1944.02 848.199V864.413M2311.54 403.988H2267.17M2267.17 403.988H2202.54M2267.17 403.988V339.359M2202.54 403.988H2137.91M2202.54 403.988V339.359M2137.91 403.988H2073.28M2137.91 403.988V339.359M2073.28 403.988H2008.65M2073.28 403.988V339.359M2008.65 403.988H1944.02M2008.65 403.988V339.359M1944.02 403.988V339.359M2311.54 339.359H2267.17M2267.17 339.359H2202.54M2267.17 339.359V274.73M2202.54 339.359H2137.91M2202.54 339.359V274.73M2137.91 339.359H2073.28M2137.91 339.359V274.73M2073.28 339.359H2008.65M2073.28 339.359V274.73M2008.65 339.359H1944.02M2008.65 339.359L2008.65 274.73M1944.02 339.359V274.73M2311.54 210.101H2267.17M2267.17 210.101H2202.54M2267.17 210.101V274.73M2267.17 210.101V145.472M2202.54 210.101H2137.91M2202.54 210.101V274.73M2202.54 210.101V145.472M2137.91 210.101H2073.28M2137.91 210.101V274.73M2137.91 210.101V145.472M2073.28 210.101H2008.65M2073.28 210.101V274.73M2073.28 210.101V145.472M2008.65 210.101H1944.02M2008.65 210.101V274.73M2008.65 210.101V145.472M1944.02 210.101V274.73M1944.02 210.101V145.472M2311.54 80.8436H2267.17M2267.17 80.8436H2202.54M2267.17 80.8436V145.472M2267.17 80.8436V16.2146M2202.54 80.8436H2137.91M2202.54 80.8436V145.472M2202.54 80.8436V16.2146M2137.91 80.8436H2073.28M2137.91 80.8436V145.472M2137.91 80.8436L2137.91 16.2146M2073.28 80.8436H2008.65M2073.28 80.8436V145.472M2073.28 80.8436V16.2146M2008.65 80.8436H1944.02M2008.65 80.8436V145.472M2008.65 80.8436V16.2146M1944.02 80.8436V145.472M1944.02 80.8436V16.2146M2311.54 274.73H2267.17M2267.17 274.73H2202.54M2202.54 274.73H2137.91M2137.91 274.73H2073.28M2073.28 274.73H2008.65M2008.65 274.73H1944.02M2311.54 145.472H2267.17M2267.17 145.472H2202.54M2202.54 145.472H2137.91M2137.91 145.472H2073.28M2073.28 145.472H2008.65M2008.65 145.472H1944.02M2311.54 16.2146H2267.17M2267.17 16.2146H2202.54M2267.17 16.2146V0.000380212M2202.54 16.2146H2137.91M2202.54 16.2146V0.000380212M2137.91 16.2146H2073.28M2137.91 16.2146V0M2073.28 16.2146H2008.65M2073.28 16.2146V0.000380212M2008.65 16.2146H1944.02M2008.65 16.2146V0M1944.02 16.2146V0M2659.8 460.425H2595.17M2659.8 460.425V525.054M2659.8 460.425V403.988M2659.8 460.425H2727.88M2595.17 460.425H2530.54M2595.17 460.425V525.054M2595.17 460.425V403.988M2530.54 460.425H2465.91M2530.54 460.425V525.054M2530.54 460.425V403.988M2465.91 460.425H2401.28M2465.91 460.425V525.054M2465.91 460.425V403.988M2401.28 460.425H2336.65M2401.28 460.425V525.054M2401.28 460.425V403.988M2336.65 460.425H2282.06M2336.65 460.425V525.054M2336.65 460.425V403.988M2659.8 525.054H2595.17M2659.8 525.054V589.684M2659.8 525.054H2727.88M2595.17 525.054H2530.54M2595.17 525.054V589.684M2530.54 525.054H2465.91M2530.54 525.054V589.684M2465.91 525.054H2401.28M2465.91 525.054V589.684M2401.28 525.054H2336.65M2401.28 525.054V589.684M2336.65 525.054H2282.06M2336.65 525.054V589.684M2659.8 654.313H2595.17M2659.8 654.313V718.942M2659.8 654.313V589.684M2659.8 654.313H2727.88M2595.17 654.313H2530.54M2595.17 654.313V718.942M2595.17 654.313V589.684M2530.54 654.313H2465.91M2530.54 654.313V718.942M2530.54 654.313V589.684M2465.91 654.313H2401.28M2465.91 654.313V718.942M2465.91 654.313V589.684M2401.28 654.313H2336.65M2401.28 654.313V718.942M2401.28 654.313L2401.28 589.684M2336.65 654.313H2282.06M2336.65 654.313V718.942M2336.65 654.313L2336.65 589.684M2659.8 783.57H2595.17M2659.8 783.57V848.199M2659.8 783.57V718.942M2659.8 783.57H2727.88M2595.17 783.57H2530.54M2595.17 783.57V848.199M2595.17 783.57V718.942M2530.54 783.57H2465.91M2530.54 783.57V848.199M2530.54 783.57V718.942M2465.91 783.57H2401.28M2465.91 783.57V848.199M2465.91 783.57V718.942M2401.28 783.57H2336.65M2401.28 783.57V848.199M2401.28 783.57V718.942M2336.65 783.57H2282.06M2336.65 783.57V848.199M2336.65 783.57V718.942M2659.8 589.684H2595.17M2659.8 589.684H2727.88M2595.17 589.684H2530.54M2530.54 589.684H2465.91M2465.91 589.684H2401.28M2401.28 589.684H2336.65M2336.65 589.684H2282.06M2659.8 718.942H2595.17M2659.8 718.942H2727.88M2595.17 718.942H2530.54M2530.54 718.942H2465.91M2465.91 718.942H2401.28M2401.28 718.942H2336.65M2336.65 718.942H2282.06M2659.8 848.199H2595.17M2659.8 848.199V864.413M2659.8 848.199H2727.88M2595.17 848.199H2530.54M2595.17 848.199V864.413M2530.54 848.199H2465.91M2530.54 848.199V864.413M2465.91 848.199H2401.28M2465.91 848.199V864.413M2401.28 848.199H2336.65M2401.28 848.199V864.413M2336.65 848.199H2282.06M2336.65 848.199V864.413M2659.8 403.988H2595.17M2659.8 403.988V339.359M2659.8 403.988H2727.88M2595.17 403.988H2530.54M2595.17 403.988V339.359M2530.54 403.988H2465.91M2530.54 403.988V339.359M2465.91 403.988H2401.28M2465.91 403.988V339.359M2401.28 403.988H2336.65M2401.28 403.988V339.359M2336.65 403.988H2282.06M2336.65 403.988V339.359M2659.8 339.359H2595.17M2659.8 339.359V274.73M2659.8 339.359H2727.88M2595.17 339.359H2530.54M2595.17 339.359V274.73M2530.54 339.359H2465.91M2530.54 339.359V274.73M2465.91 339.359H2401.28M2465.91 339.359V274.73M2401.28 339.359H2336.65M2401.28 339.359V274.73M2336.65 339.359H2282.06M2336.65 339.359V274.73M2659.8 210.101H2595.17M2659.8 210.101V274.73M2659.8 210.101V145.472M2659.8 210.101H2727.88M2595.17 210.101H2530.54M2595.17 210.101V274.73M2595.17 210.101V145.472M2530.54 210.101H2465.91M2530.54 210.101V274.73M2530.54 210.101V145.472M2465.91 210.101H2401.28M2465.91 210.101V274.73M2465.91 210.101V145.472M2401.28 210.101H2336.65M2401.28 210.101V274.73M2401.28 210.101V145.472M2336.65 210.101H2282.06M2336.65 210.101V274.73M2336.65 210.101V145.472M2659.8 80.8436H2595.17M2659.8 80.8436V145.472M2659.8 80.8436V16.2146M2659.8 80.8436H2727.88M2595.17 80.8436H2530.54M2595.17 80.8436V145.472M2595.17 80.8436V16.2146M2530.54 80.8436H2465.91M2530.54 80.8436V145.472M2530.54 80.8436V16.2146M2465.91 80.8436H2401.28M2465.91 80.8436V145.472M2465.91 80.8436V16.2146M2401.28 80.8436H2336.65M2401.28 80.8436V145.472M2401.28 80.8436V16.2146M2336.65 80.8436H2282.06M2336.65 80.8436V145.472M2336.65 80.8436V16.2146M2659.8 274.73H2595.17M2659.8 274.73H2727.88M2595.17 274.73H2530.54M2530.54 274.73H2465.91M2465.91 274.73H2401.28M2401.28 274.73H2336.65M2336.65 274.73H2282.06M2659.8 145.472H2595.17M2659.8 145.472H2727.88M2595.17 145.472H2530.54M2530.54 145.472H2465.91M2465.91 145.472H2401.28M2401.28 145.472H2336.65M2336.65 145.472H2282.06M2659.8 16.2146H2595.17M2659.8 16.2146V0.000380212M2659.8 16.2146H2727.88M2595.17 16.2146H2530.54M2595.17 16.2146V0.000380212M2530.54 16.2146H2465.91M2530.54 16.2146V0M2465.91 16.2146H2401.28M2465.91 16.2146V0.000380212M2401.28 16.2146H2336.65M2401.28 16.2146V0M2336.65 16.2146H2282.06M2336.65 16.2146V0M3095.4 460.425H3051.03M3051.03 460.425H2986.4M3051.03 460.425V525.054M3051.03 460.425V403.988M2986.4 460.425H2921.77M2986.4 460.425V525.054M2986.4 460.425V403.988M2921.77 460.425H2857.14M2921.77 460.425V525.054M2921.77 460.425V403.988M2857.14 460.425H2792.51M2857.14 460.425V525.054M2857.14 460.425V403.988M2792.51 460.425H2727.88M2792.51 460.425V525.054M2792.51 460.425V403.988M2727.88 460.425V525.054M2727.88 460.425L2727.88 403.988M3095.4 525.054H3051.03M3051.03 525.054H2986.4M3051.03 525.054V589.684M2986.4 525.054H2921.77M2986.4 525.054V589.684M2921.77 525.054H2857.14M2921.77 525.054V589.684M2857.14 525.054H2792.51M2857.14 525.054V589.684M2792.51 525.054H2727.88M2792.51 525.054V589.684M2727.88 525.054V589.684M3095.4 654.313H3051.03M3051.03 654.313H2986.4M3051.03 654.313V718.942M3051.03 654.313V589.684M2986.4 654.313H2921.77M2986.4 654.313V718.942M2986.4 654.313V589.684M2921.77 654.313H2857.14M2921.77 654.313V718.942M2921.77 654.313L2921.77 589.684M2857.14 654.313H2792.51M2857.14 654.313V718.942M2857.14 654.313V589.684M2792.51 654.313H2727.88M2792.51 654.313V718.942M2792.51 654.313V589.684M2727.88 654.313V718.942M2727.88 654.313V589.684M3095.4 783.57H3051.03M3051.03 783.57H2986.4M3051.03 783.57V848.199M3051.03 783.57V718.942M2986.4 783.57H2921.77M2986.4 783.57V848.199M2986.4 783.57V718.942M2921.77 783.57H2857.14M2921.77 783.57V848.199M2921.77 783.57V718.942M2857.14 783.57H2792.51M2857.14 783.57V848.199M2857.14 783.57V718.942M2792.51 783.57H2727.88M2792.51 783.57V848.199M2792.51 783.57V718.942M2727.88 783.57V848.199M2727.88 783.57V718.942M3095.4 589.684H3051.03M3051.03 589.684H2986.4M2986.4 589.684H2921.77M2921.77 589.684H2857.14M2857.14 589.684H2792.51M2792.51 589.684H2727.88M3095.4 718.942H3051.03M3051.03 718.942H2986.4M2986.4 718.942H2921.77M2921.77 718.942H2857.14M2857.14 718.942H2792.51M2792.51 718.942H2727.88M3095.4 848.199H3051.03M3051.03 848.199H2986.4M3051.03 848.199V864.413M2986.4 848.199H2921.77M2986.4 848.199V864.413M2921.77 848.199H2857.14M2921.77 848.199V864.413M2857.14 848.199H2792.51M2857.14 848.199V864.413M2792.51 848.199H2727.88M2792.51 848.199V864.413M2727.88 848.199V864.413M3095.4 403.988H3051.03M3051.03 403.988H2986.4M3051.03 403.988V339.359M2986.4 403.988H2921.77M2986.4 403.988V339.359M2921.77 403.988H2857.14M2921.77 403.988V339.359M2857.14 403.988H2792.51M2857.14 403.988V339.359M2792.51 403.988H2727.88M2792.51 403.988V339.359M2727.88 403.988V339.359M3095.4 339.359H3051.03M3051.03 339.359H2986.4M3051.03 339.359V274.73M2986.4 339.359H2921.77M2986.4 339.359V274.73M2921.77 339.359H2857.14M2921.77 339.359V274.73M2857.14 339.359H2792.51M2857.14 339.359V274.73M2792.51 339.359H2727.88M2792.51 339.359V274.73M2727.88 339.359V274.73M3095.4 210.101H3051.03M3051.03 210.101H2986.4M3051.03 210.101V274.73M3051.03 210.101V145.472M2986.4 210.101H2921.77M2986.4 210.101V274.73M2986.4 210.101V145.472M2921.77 210.101H2857.14M2921.77 210.101V274.73M2921.77 210.101V145.472M2857.14 210.101H2792.51M2857.14 210.101V274.73M2857.14 210.101V145.472M2792.51 210.101H2727.88M2792.51 210.101V274.73M2792.51 210.101V145.472M2727.88 210.101V274.73M2727.88 210.101V145.472M3095.4 80.8436H3051.03M3051.03 80.8436H2986.4M3051.03 80.8436V145.472M3051.03 80.8436V16.2146M2986.4 80.8436H2921.77M2986.4 80.8436V145.472M2986.4 80.8436V16.2146M2921.77 80.8436H2857.14M2921.77 80.8436V145.472M2921.77 80.8436V16.2146M2857.14 80.8436H2792.51M2857.14 80.8436V145.472M2857.14 80.8436V16.2146M2792.51 80.8436H2727.88M2792.51 80.8436V145.472M2792.51 80.8436V16.2146M2727.88 80.8436V145.472M2727.88 80.8436V16.2146M3095.4 274.73H3051.03M3051.03 274.73H2986.4M2986.4 274.73H2921.77M2921.77 274.73H2857.14M2857.14 274.73H2792.51M2792.51 274.73H2727.88M3095.4 145.472H3051.03M3051.03 145.472H2986.4M2986.4 145.472H2921.77M2921.77 145.472H2857.14M2857.14 145.472H2792.51M2792.51 145.472H2727.88M3095.4 16.2146H3051.03M3051.03 16.2146H2986.4M3051.03 16.2146V0.000380212M2986.4 16.2146H2921.77M2986.4 16.2146V0.000380212M2921.77 16.2146H2857.14M2921.77 16.2146V0M2857.14 16.2146H2792.51M2857.14 16.2146V0.000380212M2792.51 16.2146H2727.88M2792.51 16.2146V0M2727.88 16.2146V0M1875.94 1292.62H1811.31M1875.94 1292.62V1357.25M1875.94 1292.62V1236.19M1875.94 1292.62H1944.02M1811.31 1292.62H1746.68M1811.31 1292.62V1357.25M1811.31 1292.62V1236.19M1746.68 1292.62H1682.05M1746.68 1292.62V1357.25M1746.68 1292.62V1236.19M1682.05 1292.62H1617.42M1682.05 1292.62V1357.25M1682.05 1292.62V1236.19M1617.42 1292.62H1552.79M1617.42 1292.62V1357.25M1617.42 1292.62V1236.19M1552.79 1292.62H1498.2M1552.79 1292.62V1357.25M1552.79 1292.62V1236.19M1875.94 1357.25H1811.31M1875.94 1357.25V1421.88M1875.94 1357.25H1944.02M1811.31 1357.25H1746.68M1811.31 1357.25V1421.88M1746.68 1357.25H1682.05M1746.68 1357.25V1421.88M1682.05 1357.25H1617.42M1682.05 1357.25V1421.88M1617.42 1357.25H1552.79M1617.42 1357.25V1421.88M1552.79 1357.25H1498.2M1552.79 1357.25V1421.88M1875.94 1486.51H1811.31M1875.94 1486.51V1551.14M1875.94 1486.51V1421.88M1875.94 1486.51H1944.02M1811.31 1486.51H1746.68M1811.31 1486.51V1551.14M1811.31 1486.51V1421.88M1746.68 1486.51H1682.05M1746.68 1486.51V1551.14M1746.68 1486.51V1421.88M1682.05 1486.51H1617.42M1682.05 1486.51V1551.14M1682.05 1486.51V1421.88M1617.42 1486.51H1552.79M1617.42 1486.51V1551.14M1617.42 1486.51V1421.88M1552.79 1486.51H1498.2M1552.79 1486.51V1551.14M1552.79 1486.51V1421.88M1875.94 1615.77H1811.31M1875.94 1615.77V1680.4M1875.94 1615.77V1551.14M1875.94 1615.77H1944.02M1811.31 1615.77H1746.68M1811.31 1615.77V1680.4M1811.31 1615.77V1551.14M1746.68 1615.77H1682.05M1746.68 1615.77V1680.4M1746.68 1615.77V1551.14M1682.05 1615.77H1617.42M1682.05 1615.77V1680.4M1682.05 1615.77V1551.14M1617.42 1615.77H1552.79M1617.42 1615.77V1680.4M1617.42 1615.77V1551.14M1552.79 1615.77H1498.2M1552.79 1615.77V1680.4M1552.79 1615.77V1551.14M1875.94 1421.88H1811.31M1875.94 1421.88H1944.02M1811.31 1421.88H1746.68M1746.68 1421.88H1682.05M1682.05 1421.88H1617.42M1617.42 1421.88H1552.79M1552.79 1421.88H1498.2M1875.94 1551.14H1811.31M1875.94 1551.14H1944.02M1811.31 1551.14H1746.68M1746.68 1551.14H1682.05M1682.05 1551.14H1617.42M1617.42 1551.14H1552.79M1552.79 1551.14H1498.2M1875.94 1680.4H1811.31M1875.94 1680.4V1696.61M1875.94 1680.4H1944.02M1811.31 1680.4H1746.68M1811.31 1680.4V1696.61M1746.68 1680.4H1682.05M1746.68 1680.4V1696.61M1682.05 1680.4H1617.42M1682.05 1680.4V1696.61M1617.42 1680.4H1552.79M1617.42 1680.4V1696.61M1552.79 1680.4H1498.2M1552.79 1680.4V1696.61M1875.94 1236.19H1811.31M1875.94 1236.19V1171.56M1875.94 1236.19H1944.02M1811.31 1236.19H1746.68M1811.31 1236.19V1171.56M1746.68 1236.19H1682.05M1746.68 1236.19V1171.56M1682.05 1236.19H1617.42M1682.05 1236.19V1171.56M1617.42 1236.19H1552.79M1617.42 1236.19V1171.56M1552.79 1236.19H1498.2M1552.79 1236.19V1171.56M1875.94 1171.56H1811.31M1875.94 1171.56V1106.93M1875.94 1171.56H1944.02M1811.31 1171.56H1746.68M1811.31 1171.56V1106.93M1746.68 1171.56H1682.05M1746.68 1171.56V1106.93M1682.05 1171.56H1617.42M1682.05 1171.56V1106.93M1617.42 1171.56H1552.79M1617.42 1171.56V1106.93M1552.79 1171.56H1498.2M1552.79 1171.56V1106.93M1875.94 1042.3H1811.31M1875.94 1042.3V1106.93M1875.94 1042.3V977.671M1875.94 1042.3H1944.02M1811.31 1042.3H1746.68M1811.31 1042.3V1106.93M1811.31 1042.3V977.671M1746.68 1042.3H1682.05M1746.68 1042.3V1106.93M1746.68 1042.3V977.671M1682.05 1042.3H1617.42M1682.05 1042.3V1106.93M1682.05 1042.3V977.671M1617.42 1042.3H1552.79M1617.42 1042.3L1617.42 1106.93M1617.42 1042.3V977.671M1552.79 1042.3H1498.2M1552.79 1042.3L1552.79 1106.93M1552.79 1042.3V977.671M1875.94 913.042H1811.31M1875.94 913.042V977.671M1875.94 913.042V848.413M1875.94 913.042H1944.02M1811.31 913.042H1746.68M1811.31 913.042V977.671M1811.31 913.042V848.413M1746.68 913.042H1682.05M1746.68 913.042V977.671M1746.68 913.042V848.413M1682.05 913.042H1617.42M1682.05 913.042V977.671M1682.05 913.042V848.413M1617.42 913.042H1552.79M1617.42 913.042V977.671M1617.42 913.042V848.413M1552.79 913.042H1498.2M1552.79 913.042V977.671M1552.79 913.042V848.413M1875.94 1106.93H1811.31M1875.94 1106.93H1944.02M1811.31 1106.93H1746.68M1746.68 1106.93H1682.05M1682.05 1106.93H1617.42M1617.42 1106.93H1552.79M1552.79 1106.93H1498.2M1875.94 977.671H1811.31M1875.94 977.671H1944.02M1811.31 977.671H1746.68M1746.68 977.671H1682.05M1682.05 977.671H1617.42M1617.42 977.671H1552.79M1552.79 977.671H1498.2M1875.94 848.413H1811.31M1875.94 848.413V832.199M1875.94 848.413H1944.02M1811.31 848.413H1746.68M1811.31 848.413V832.199M1746.68 848.413H1682.05M1746.68 848.413V832.199M1682.05 848.413H1617.42M1682.05 848.413V832.199M1617.42 848.413H1552.79M1617.42 848.413V832.199M1552.79 848.413H1498.2M1552.79 848.413V832.199M2311.54 1292.62H2267.17M2267.17 1292.62H2202.54M2267.17 1292.62V1357.25M2267.17 1292.62V1236.19M2202.54 1292.62H2137.91M2202.54 1292.62V1357.25M2202.54 1292.62V1236.19M2137.91 1292.62H2073.28M2137.91 1292.62V1357.25M2137.91 1292.62V1236.19M2073.28 1292.62H2008.65M2073.28 1292.62V1357.25M2073.28 1292.62V1236.19M2008.65 1292.62H1944.02M2008.65 1292.62V1357.25M2008.65 1292.62V1236.19M1944.02 1292.62V1357.25M1944.02 1292.62L1944.02 1236.19M2311.54 1357.25H2267.17M2267.17 1357.25H2202.54M2267.17 1357.25V1421.88M2202.54 1357.25H2137.91M2202.54 1357.25V1421.88M2137.91 1357.25H2073.28M2137.91 1357.25V1421.88M2073.28 1357.25H2008.65M2073.28 1357.25V1421.88M2008.65 1357.25H1944.02M2008.65 1357.25V1421.88M1944.02 1357.25V1421.88M2311.54 1486.51H2267.17M2267.17 1486.51H2202.54M2267.17 1486.51V1551.14M2267.17 1486.51V1421.88M2202.54 1486.51H2137.91M2202.54 1486.51V1551.14M2202.54 1486.51V1421.88M2137.91 1486.51H2073.28M2137.91 1486.51V1551.14M2137.91 1486.51V1421.88M2073.28 1486.51H2008.65M2073.28 1486.51V1551.14M2073.28 1486.51V1421.88M2008.65 1486.51H1944.02M2008.65 1486.51V1551.14M2008.65 1486.51V1421.88M1944.02 1486.51V1551.14M1944.02 1486.51V1421.88M2311.54 1615.77H2267.17M2267.17 1615.77H2202.54M2267.17 1615.77V1680.4M2267.17 1615.77V1551.14M2202.54 1615.77H2137.91M2202.54 1615.77V1680.4M2202.54 1615.77V1551.14M2137.91 1615.77H2073.28M2137.91 1615.77V1680.4M2137.91 1615.77V1551.14M2073.28 1615.77H2008.65M2073.28 1615.77V1680.4M2073.28 1615.77V1551.14M2008.65 1615.77H1944.02M2008.65 1615.77V1680.4M2008.65 1615.77V1551.14M1944.02 1615.77V1680.4M1944.02 1615.77V1551.14M2311.54 1421.88H2267.17M2267.17 1421.88H2202.54M2202.54 1421.88H2137.91M2137.91 1421.88H2073.28M2073.28 1421.88H2008.65M2008.65 1421.88H1944.02M2311.54 1551.14H2267.17M2267.17 1551.14H2202.54M2202.54 1551.14H2137.91M2137.91 1551.14H2073.28M2073.28 1551.14H2008.65M2008.65 1551.14H1944.02M2311.54 1680.4H2267.17M2267.17 1680.4H2202.54M2267.17 1680.4V1696.61M2202.54 1680.4H2137.91M2202.54 1680.4V1696.61M2137.91 1680.4H2073.28M2137.91 1680.4V1696.61M2073.28 1680.4H2008.65M2073.28 1680.4V1696.61M2008.65 1680.4H1944.02M2008.65 1680.4V1696.61M1944.02 1680.4V1696.61M2311.54 1236.19H2267.17M2267.17 1236.19H2202.54M2267.17 1236.19V1171.56M2202.54 1236.19H2137.91M2202.54 1236.19V1171.56M2137.91 1236.19H2073.28M2137.91 1236.19V1171.56M2073.28 1236.19H2008.65M2073.28 1236.19V1171.56M2008.65 1236.19H1944.02M2008.65 1236.19V1171.56M1944.02 1236.19V1171.56M2311.54 1171.56H2267.17M2267.17 1171.56H2202.54M2267.17 1171.56V1106.93M2202.54 1171.56H2137.91M2202.54 1171.56V1106.93M2137.91 1171.56H2073.28M2137.91 1171.56V1106.93M2073.28 1171.56H2008.65M2073.28 1171.56V1106.93M2008.65 1171.56H1944.02M2008.65 1171.56L2008.65 1106.93M1944.02 1171.56V1106.93M2311.54 1042.3H2267.17M2267.17 1042.3H2202.54M2267.17 1042.3V1106.93M2267.17 1042.3V977.671M2202.54 1042.3H2137.91M2202.54 1042.3V1106.93M2202.54 1042.3V977.671M2137.91 1042.3H2073.28M2137.91 1042.3V1106.93M2137.91 1042.3V977.671M2073.28 1042.3H2008.65M2073.28 1042.3V1106.93M2073.28 1042.3V977.671M2008.65 1042.3H1944.02M2008.65 1042.3V1106.93M2008.65 1042.3V977.671M1944.02 1042.3V1106.93M1944.02 1042.3V977.671M2311.54 913.042H2267.17M2267.17 913.042H2202.54M2267.17 913.042V977.671M2267.17 913.042V848.413M2202.54 913.042H2137.91M2202.54 913.042V977.671M2202.54 913.042V848.413M2137.91 913.042H2073.28M2137.91 913.042V977.671M2137.91 913.042L2137.91 848.413M2073.28 913.042H2008.65M2073.28 913.042V977.671M2073.28 913.042V848.413M2008.65 913.042H1944.02M2008.65 913.042V977.671M2008.65 913.042V848.413M1944.02 913.042V977.671M1944.02 913.042V848.413M2311.54 1106.93H2267.17M2267.17 1106.93H2202.54M2202.54 1106.93H2137.91M2137.91 1106.93H2073.28M2073.28 1106.93H2008.65M2008.65 1106.93H1944.02M2311.54 977.671H2267.17M2267.17 977.671H2202.54M2202.54 977.671H2137.91M2137.91 977.671H2073.28M2073.28 977.671H2008.65M2008.65 977.671H1944.02M2311.54 848.413H2267.17M2267.17 848.413H2202.54M2267.17 848.413V832.199M2202.54 848.413H2137.91M2202.54 848.413V832.199M2137.91 848.413H2073.28M2137.91 848.413V832.199M2073.28 848.413H2008.65M2073.28 848.413V832.199M2008.65 848.413H1944.02M2008.65 848.413V832.199M1944.02 848.413V832.199M2659.8 1292.62H2595.17M2659.8 1292.62V1357.25M2659.8 1292.62V1236.19M2659.8 1292.62H2727.88M2595.17 1292.62H2530.54M2595.17 1292.62V1357.25M2595.17 1292.62V1236.19M2530.54 1292.62H2465.91M2530.54 1292.62V1357.25M2530.54 1292.62V1236.19M2465.91 1292.62H2401.28M2465.91 1292.62V1357.25M2465.91 1292.62V1236.19M2401.28 1292.62H2336.65M2401.28 1292.62V1357.25M2401.28 1292.62V1236.19M2336.65 1292.62H2282.06M2336.65 1292.62V1357.25M2336.65 1292.62V1236.19M2659.8 1357.25H2595.17M2659.8 1357.25V1421.88M2659.8 1357.25H2727.88M2595.17 1357.25H2530.54M2595.17 1357.25V1421.88M2530.54 1357.25H2465.91M2530.54 1357.25V1421.88M2465.91 1357.25H2401.28M2465.91 1357.25V1421.88M2401.28 1357.25H2336.65M2401.28 1357.25V1421.88M2336.65 1357.25H2282.06M2336.65 1357.25V1421.88M2659.8 1486.51H2595.17M2659.8 1486.51V1551.14M2659.8 1486.51V1421.88M2659.8 1486.51H2727.88M2595.17 1486.51H2530.54M2595.17 1486.51V1551.14M2595.17 1486.51V1421.88M2530.54 1486.51H2465.91M2530.54 1486.51V1551.14M2530.54 1486.51V1421.88M2465.91 1486.51H2401.28M2465.91 1486.51V1551.14M2465.91 1486.51V1421.88M2401.28 1486.51H2336.65M2401.28 1486.51V1551.14M2401.28 1486.51L2401.28 1421.88M2336.65 1486.51H2282.06M2336.65 1486.51V1551.14M2336.65 1486.51L2336.65 1421.88M2659.8 1615.77H2595.17M2659.8 1615.77V1680.4M2659.8 1615.77V1551.14M2659.8 1615.77H2727.88M2595.17 1615.77H2530.54M2595.17 1615.77V1680.4M2595.17 1615.77V1551.14M2530.54 1615.77H2465.91M2530.54 1615.77V1680.4M2530.54 1615.77V1551.14M2465.91 1615.77H2401.28M2465.91 1615.77V1680.4M2465.91 1615.77V1551.14M2401.28 1615.77H2336.65M2401.28 1615.77V1680.4M2401.28 1615.77V1551.14M2336.65 1615.77H2282.06M2336.65 1615.77V1680.4M2336.65 1615.77V1551.14M2659.8 1421.88H2595.17M2659.8 1421.88H2727.88M2595.17 1421.88H2530.54M2530.54 1421.88H2465.91M2465.91 1421.88H2401.28M2401.28 1421.88H2336.65M2336.65 1421.88H2282.06M2659.8 1551.14H2595.17M2659.8 1551.14H2727.88M2595.17 1551.14H2530.54M2530.54 1551.14H2465.91M2465.91 1551.14H2401.28M2401.28 1551.14H2336.65M2336.65 1551.14H2282.06M2659.8 1680.4H2595.17M2659.8 1680.4V1696.61M2659.8 1680.4H2727.88M2595.17 1680.4H2530.54M2595.17 1680.4V1696.61M2530.54 1680.4H2465.91M2530.54 1680.4V1696.61M2465.91 1680.4H2401.28M2465.91 1680.4V1696.61M2401.28 1680.4H2336.65M2401.28 1680.4V1696.61M2336.65 1680.4H2282.06M2336.65 1680.4V1696.61M2659.8 1236.19H2595.17M2659.8 1236.19V1171.56M2659.8 1236.19H2727.88M2595.17 1236.19H2530.54M2595.17 1236.19V1171.56M2530.54 1236.19H2465.91M2530.54 1236.19V1171.56M2465.91 1236.19H2401.28M2465.91 1236.19V1171.56M2401.28 1236.19H2336.65M2401.28 1236.19V1171.56M2336.65 1236.19H2282.06M2336.65 1236.19V1171.56M2659.8 1171.56H2595.17M2659.8 1171.56V1106.93M2659.8 1171.56H2727.88M2595.17 1171.56H2530.54M2595.17 1171.56V1106.93M2530.54 1171.56H2465.91M2530.54 1171.56V1106.93M2465.91 1171.56H2401.28M2465.91 1171.56V1106.93M2401.28 1171.56H2336.65M2401.28 1171.56V1106.93M2336.65 1171.56H2282.06M2336.65 1171.56V1106.93M2659.8 1042.3H2595.17M2659.8 1042.3V1106.93M2659.8 1042.3V977.671M2659.8 1042.3H2727.88M2595.17 1042.3H2530.54M2595.17 1042.3V1106.93M2595.17 1042.3V977.671M2530.54 1042.3H2465.91M2530.54 1042.3V1106.93M2530.54 1042.3V977.671M2465.91 1042.3H2401.28M2465.91 1042.3V1106.93M2465.91 1042.3V977.671M2401.28 1042.3H2336.65M2401.28 1042.3V1106.93M2401.28 1042.3V977.671M2336.65 1042.3H2282.06M2336.65 1042.3V1106.93M2336.65 1042.3V977.671M2659.8 913.042H2595.17M2659.8 913.042V977.671M2659.8 913.042V848.413M2659.8 913.042H2727.88M2595.17 913.042H2530.54M2595.17 913.042V977.671M2595.17 913.042V848.413M2530.54 913.042H2465.91M2530.54 913.042V977.671M2530.54 913.042V848.413M2465.91 913.042H2401.28M2465.91 913.042V977.671M2465.91 913.042V848.413M2401.28 913.042H2336.65M2401.28 913.042V977.671M2401.28 913.042V848.413M2336.65 913.042H2282.06M2336.65 913.042V977.671M2336.65 913.042V848.413M2659.8 1106.93H2595.17M2659.8 1106.93H2727.88M2595.17 1106.93H2530.54M2530.54 1106.93H2465.91M2465.91 1106.93H2401.28M2401.28 1106.93H2336.65M2336.65 1106.93H2282.06M2659.8 977.671H2595.17M2659.8 977.671H2727.88M2595.17 977.671H2530.54M2530.54 977.671H2465.91M2465.91 977.671H2401.28M2401.28 977.671H2336.65M2336.65 977.671H2282.06M2659.8 848.413H2595.17M2659.8 848.413V832.199M2659.8 848.413H2727.88M2595.17 848.413H2530.54M2595.17 848.413V832.199M2530.54 848.413H2465.91M2530.54 848.413V832.199M2465.91 848.413H2401.28M2465.91 848.413V832.199M2401.28 848.413H2336.65M2401.28 848.413V832.199M2336.65 848.413H2282.06M2336.65 848.413V832.199M3095.4 1292.62H3051.03M3051.03 1292.62H2986.4M3051.03 1292.62V1357.25M3051.03 1292.62V1236.19M2986.4 1292.62H2921.77M2986.4 1292.62V1357.25M2986.4 1292.62V1236.19M2921.77 1292.62H2857.14M2921.77 1292.62V1357.25M2921.77 1292.62V1236.19M2857.14 1292.62H2792.51M2857.14 1292.62V1357.25M2857.14 1292.62V1236.19M2792.51 1292.62H2727.88M2792.51 1292.62V1357.25M2792.51 1292.62V1236.19M2727.88 1292.62V1357.25M2727.88 1292.62L2727.88 1236.19M3095.4 1357.25H3051.03M3051.03 1357.25H2986.4M3051.03 1357.25V1421.88M2986.4 1357.25H2921.77M2986.4 1357.25V1421.88M2921.77 1357.25H2857.14M2921.77 1357.25V1421.88M2857.14 1357.25H2792.51M2857.14 1357.25V1421.88M2792.51 1357.25H2727.88M2792.51 1357.25V1421.88M2727.88 1357.25V1421.88M3095.4 1486.51H3051.03M3051.03 1486.51H2986.4M3051.03 1486.51V1551.14M3051.03 1486.51V1421.88M2986.4 1486.51H2921.77M2986.4 1486.51V1551.14M2986.4 1486.51V1421.88M2921.77 1486.51H2857.14M2921.77 1486.51V1551.14M2921.77 1486.51L2921.77 1421.88M2857.14 1486.51H2792.51M2857.14 1486.51V1551.14M2857.14 1486.51V1421.88M2792.51 1486.51H2727.88M2792.51 1486.51V1551.14M2792.51 1486.51V1421.88M2727.88 1486.51V1551.14M2727.88 1486.51V1421.88M3095.4 1615.77H3051.03M3051.03 1615.77H2986.4M3051.03 1615.77V1680.4M3051.03 1615.77V1551.14M2986.4 1615.77H2921.77M2986.4 1615.77V1680.4M2986.4 1615.77V1551.14M2921.77 1615.77H2857.14M2921.77 1615.77V1680.4M2921.77 1615.77V1551.14M2857.14 1615.77H2792.51M2857.14 1615.77V1680.4M2857.14 1615.77V1551.14M2792.51 1615.77H2727.88M2792.51 1615.77V1680.4M2792.51 1615.77V1551.14M2727.88 1615.77V1680.4M2727.88 1615.77V1551.14M3095.4 1421.88H3051.03M3051.03 1421.88H2986.4M2986.4 1421.88H2921.77M2921.77 1421.88H2857.14M2857.14 1421.88H2792.51M2792.51 1421.88H2727.88M3095.4 1551.14H3051.03M3051.03 1551.14H2986.4M2986.4 1551.14H2921.77M2921.77 1551.14H2857.14M2857.14 1551.14H2792.51M2792.51 1551.14H2727.88M3095.4 1680.4H3051.03M3051.03 1680.4H2986.4M3051.03 1680.4V1696.61M2986.4 1680.4H2921.77M2986.4 1680.4V1696.61M2921.77 1680.4H2857.14M2921.77 1680.4V1696.61M2857.14 1680.4H2792.51M2857.14 1680.4V1696.61M2792.51 1680.4H2727.88M2792.51 1680.4V1696.61M2727.88 1680.4V1696.61M3095.4 1236.19H3051.03M3051.03 1236.19H2986.4M3051.03 1236.19V1171.56M2986.4 1236.19H2921.77M2986.4 1236.19V1171.56M2921.77 1236.19H2857.14M2921.77 1236.19V1171.56M2857.14 1236.19H2792.51M2857.14 1236.19V1171.56M2792.51 1236.19H2727.88M2792.51 1236.19V1171.56M2727.88 1236.19V1171.56M3095.4 1171.56H3051.03M3051.03 1171.56H2986.4M3051.03 1171.56V1106.93M2986.4 1171.56H2921.77M2986.4 1171.56V1106.93M2921.77 1171.56H2857.14M2921.77 1171.56V1106.93M2857.14 1171.56H2792.51M2857.14 1171.56V1106.93M2792.51 1171.56H2727.88M2792.51 1171.56V1106.93M2727.88 1171.56V1106.93M3095.4 1042.3H3051.03M3051.03 1042.3H2986.4M3051.03 1042.3V1106.93M3051.03 1042.3V977.671M2986.4 1042.3H2921.77M2986.4 1042.3V1106.93M2986.4 1042.3V977.671M2921.77 1042.3H2857.14M2921.77 1042.3V1106.93M2921.77 1042.3V977.671M2857.14 1042.3H2792.51M2857.14 1042.3V1106.93M2857.14 1042.3V977.671M2792.51 1042.3H2727.88M2792.51 1042.3V1106.93M2792.51 1042.3V977.671M2727.88 1042.3V1106.93M2727.88 1042.3V977.671M3095.4 913.042H3051.03M3051.03 913.042H2986.4M3051.03 913.042V977.671M3051.03 913.042V848.413M2986.4 913.042H2921.77M2986.4 913.042V977.671M2986.4 913.042V848.413M2921.77 913.042H2857.14M2921.77 913.042V977.671M2921.77 913.042V848.413M2857.14 913.042H2792.51M2857.14 913.042V977.671M2857.14 913.042V848.413M2792.51 913.042H2727.88M2792.51 913.042V977.671M2792.51 913.042V848.413M2727.88 913.042V977.671M2727.88 913.042V848.413M3095.4 1106.93H3051.03M3051.03 1106.93H2986.4M2986.4 1106.93H2921.77M2921.77 1106.93H2857.14M2857.14 1106.93H2792.51M2792.51 1106.93H2727.88M3095.4 977.671H3051.03M3051.03 977.671H2986.4M2986.4 977.671H2921.77M2921.77 977.671H2857.14M2857.14 977.671H2792.51M2792.51 977.671H2727.88M3095.4 848.413H3051.03M3051.03 848.413H2986.4M3051.03 848.413V832.199M2986.4 848.413H2921.77M2986.4 848.413V832.199M2921.77 848.413H2857.14M2921.77 848.413V832.199M2857.14 848.413H2792.51M2857.14 848.413V832.199M2792.51 848.413H2727.88M2792.51 848.413V832.199M2727.88 848.413V832.199" stroke="#EEEEEE" stroke-width="3"></path></svg>